<svg xmlns="http://www.w3.org/2000/svg" xmlns:xlink="http://www.w3.org/1999/xlink" width="304" height="43" viewBox="0 0 304 43"><defs><path id="a" d="M0 0h89v43H0z"/><path id="c" d="M0 0h100v43H0z"/></defs><g fill="none" fill-rule="evenodd"><g><mask id="b" fill="#fff"><use xlink:href="#a"/></mask><path fill="#FFFFFE" d="M2.6347 34.31158c1.88897 2.00085 4.60476 3.5311 7.49722 3.5311 3.65991 0 6.0213-2.47185 6.0213-6.17978 0-8.7689-15.23046-8.18063-15.23046-20.30414C.92276 5.06133 5.23212 0 12.72934 0c3.06983 0 6.19868.88277 8.7371 2.64832l-2.00699 5.0025c-1.53528-1.29457-4.42774-2.413-6.67075-2.413-4.1327 0-6.25769 2.82515-6.25769 6.12094 0 8.59242 15.28947 7.65082 15.28947 20.01 0 6.47391-4.07297 11.6529-11.51154 11.6529-3.71892 0-7.4382-1.35376-10.33066-3.88442l2.65642-4.82566M41.53768 37.72502c6.49336 0 10.9211-6.41509 10.9211-16.47892 0-9.82852-4.42774-15.89063-10.9211-15.89063-6.49373 0-10.8621 6.06211-10.8621 15.89063 0 10.12266 4.36837 16.47892 10.8621 16.47892Zm0-37.72502c9.9176 0 16.70637 8.5336 16.70637 21.2461 0 12.94746-6.78876 21.77555-16.70637 21.77555S24.94932 34.2524 24.94932 21.2461C24.94932 8.5336 31.62007 0 41.53768 0ZM63.20213.7063h5.54924v28.30828c0 5.9441 2.89282 8.8281 7.32019 8.8281 4.48674 0 7.3792-2.884 7.3792-8.88693V.7063H89v28.42594c0 8.71044-5.13619 13.88942-12.86943 13.88942-7.79225 0-12.92844-5.17898-12.92844-13.88942V.7063" mask="url(#b)"/></g><path fill="#FFFFFE" d="M103.71721 5.0495H93V0h27v5.0495h-10.7764V42h-5.50639V5.0495M123 0h5.70346v18.53463h15.65373V0H150v42h-5.64281V23.52475h-15.65373V42H123V0M157 0h18.32339v5.0495h-13.02358v13.24761h10.54292v5.0495h-10.54292V36.9505H176V42h-19V0"/><g transform="translate(177)"><mask id="d" fill="#fff"><use xlink:href="#c"/></mask><path fill="#FFFFFE" d="M10.75996 24.71837 0 .70629h6.11481l5.5855 13.59492c.94108 2.41301 1.76424 5.17899 1.76424 5.17899h.11755s.88194-2.76598 1.76388-5.17899L20.93148.7063h6.0564L16.2867 24.71837v17.597h-5.52673v-17.597M89.41635 0c3.469 0 7.29098 1.05926 9.99557 3.41344l-2.35196 4.82602c-1.70511-1.6479-4.8211-2.94282-7.52606-2.94282-7.81992 0-12.2884 6.94489-12.2884 15.89028 0 9.06376 4.58602 16.59692 12.11208 16.59692 3.2339 0 6.11517-1.35375 8.46677-3.23695L100 39.31372c-2.58705 2.23653-6.29149 3.70793-10.93628 3.70793-10.9954 0-17.5804-9.41636-17.5804-21.59906C71.48333 9.0634 78.18587 0 89.41636 0" mask="url(#d)"/></g><path fill="#FFFFFE" d="M291.03048 30.05833c4.60587 0 7.27247-4.64048 7.27247-11.08845 0-6.50857-2.6666-11.02821-7.27247-11.02821-4.66683 0-7.33343 4.51964-7.33343 11.02821 0 6.44797 2.6666 11.08845 7.33343 11.08845Zm0-27.05833C298.84854 3 304 9.74952 304 18.96988S298.84854 35 291.03048 35C283.21204 35 278 28.25048 278 18.96988S283.21204 3 291.03048 3Z"/><g fill="#8C6F2F"><path d="M219.81037 12.15142c0 1.82851.72087 3.7486 2.16297 5.75953.89132-.41747 1.76309-.9139 2.61568-1.48891.85151-.5743 1.55356-1.27333 2.10398-2.09602.55079-.82305.82618-1.82202.82618-2.99765 0-1.22719-.31484-2.21355-.94415-2.958-.62931-.74446-1.50796-1.11687-2.63522-1.11687-1.23257 0-2.22883.44451-2.98915 1.33245-.76067.8883-1.14029 2.07655-1.14029 3.56547Zm-5.27044 14.65372c0 1.17563.2164 2.19444.64885 3.05642.43281.86199 1.0748 1.52172 1.92738 1.9785.85151.45748 1.85465.68569 3.00869.68569 1.02268 0 1.9205-.1763 2.6942-.52887.77299-.35259 1.46129-.80323 2.0649-1.35192.6029-.54834 1.1269-1.10966 1.5731-1.68468l-4.52315-5.75953c-.36731-.49607-.76068-1.01881-1.17974-1.56751-.41978-.54834-.82581-1.09704-1.21918-1.64538-1.8094.83603-3.09445 1.81554-3.8544 2.93854-.76104 1.12335-1.14065 2.41615-1.14065 3.87874Zm15.693 7.01376-2.98914-3.8791c-1.25863 1.3584-2.53064 2.40966-3.81532 3.15411-1.28468.74446-2.79228 1.11687-4.5228 1.11687-.97057 0-1.92738-.1507-2.87117-.45064-.94415-.29995-1.79638-.75059-2.5567-1.35192-.76067-.60061-1.36357-1.33822-1.80904-2.21354-.4462-.87497-.66876-1.88692-.66876-3.0366 0-1.64573.61592-3.14763 1.84885-4.50603 1.23185-1.35805 3.2251-2.59893 5.97793-3.72229-.86526-1.3321-1.48842-2.47455-1.86803-3.42847-.38034-.9532-.57033-1.88692-.57033-2.80118 0-1.30613.30109-2.46193.9047-3.46776.6029-1.0051 1.45513-1.79571 2.55634-2.37037C220.95066 6.28768 222.22232 6 223.66478 6c1.1012 0 2.15609.20946 3.16574.62657 1.00929.41855 1.8351 1.02566 2.47817 1.82203.64197.79709.96332 1.79643.96332 2.99765 0 .94022-.21604 1.78922-.64885 2.54666-.43245.7578-1.00965 1.43015-1.73052 2.01779-.72159.58763-1.53402 1.11073-2.43836 1.5675a30.82162 30.82162 0 0 1-2.7731 1.23403l6.1357 7.99291 4.01183-5.75954c.44548-.62693.70096-1.09018.76683-1.39085.06514-.29995 0-.50255-.1965-.60746-.19687-.10383-.45236-.15647-.7672-.15647h-1.45512v-1.33245h8.4561v1.33245h-1.45514c-.60361 0-1.09541.03894-1.47503.11717-.38033.0786-.72774.26173-1.04222.5487-.31483.28769-.72159.7578-1.21918 1.41068l-4.87708 6.85658 1.8485 2.3902c.52436.65324 1.0158 1.14318 1.47503 1.46944.45814.32662.98323.54221 1.5731.6464.58986.10455 1.29119.15682 2.10434.15682h1.65163v1.3321h-7.98384ZM282.86104 42H301v-4.79913h-18.13896z"/></g></g></svg>
