<svg class="testimonial__pattern" xmlns="http://www.w3.org/2000/svg" xmlns:xlink="http://www.w3.org/1999/xlink" width="230" height="607" viewBox="0 0 230 607"><defs><path id="patterna" d="M0 0h230v607H0z"/></defs><g fill="none" fill-rule="evenodd"><mask id="patternb" fill="#fff"><use xlink:href="#patterna"/></mask><path fill="#8C6F2F" d="M-128.123 1023.96v5.6h-20.988v-5.6h20.988Zm-377.949 0v5.6h-20.988v-5.6h20.988Zm440.912 0v5.6h-20.988v-5.6h20.988Zm-314.986 0v5.6h-20.988v-5.6h20.988Zm566.923 0v5.6H165.79v-5.6h20.987Zm-62.963 0v5.6h-20.987v-5.6h20.987Zm-440.912 0v5.6h-20.987v-5.6h20.987Zm125.926 0v5.6h-20.987v-5.6h20.987Zm252.023 0v5.6H39.864v-5.6h20.987Zm-503.96 0v5.6h-20.988v-5.6h20.988Zm188.974 0v5.6h-20.987v-5.6h20.987Zm251.938 0v5.6h-20.988v-5.6h20.988Zm-220.456-11.2v5.6h-20.988v-5.6h20.988Zm377.949 0v5.6h-20.988v-5.6h20.988Zm-503.961 0v5.6h-20.987v-5.6h20.987Zm377.949 0v5.6H8.297v-5.6h20.987Zm-503.875 0v5.6h-20.988v-5.6h20.988Zm692.85 0v5.6h-20.988v-5.6h20.988Zm-629.887 0v5.6h-20.987v-5.6h20.987Zm251.938 0v5.6h-20.988v-5.6h20.988Zm-125.926 0v5.6h-20.988v-5.6h20.988Zm251.937 0v5.6h-20.987v-5.6h20.987Zm-62.963 0v5.6h-20.987v-5.6h20.987Zm188.975 0v5.6H71.345v-5.6h20.988Zm-94.53-11.2v5.6h-20.988v-5.6h20.988Zm-377.949 0v5.6h-20.988v-5.6h20.988Zm63.048 0v5.6h-20.987v-5.6h20.987Zm62.963 0v5.6h-20.987v-5.6h20.987Zm-188.974 0v5.6h-20.988v-5.6h20.988Zm377.949 0v5.6h-20.988v-5.6h20.988Zm-62.963 0v5.6h-20.988v-5.6h20.988Zm251.937 0v5.6h-20.987v-5.6h20.987Zm-314.986 0v5.6h-20.987v-5.6h20.987Zm252.023 0v5.6H39.864v-5.6h20.987Zm125.926 0v5.6H165.79v-5.6h20.987Zm-692.849 0v5.6h-20.988v-5.6h20.988Zm31.481-11.2v5.6h-20.988v-5.6h20.988Zm692.85 0v5.6h-20.988v-5.6h20.988Zm-62.963 0v5.6h-20.988v-5.6h20.988Zm-377.949 0v5.6h-20.988v-5.6h20.988Zm188.974 0v5.6h-20.987v-5.6h20.987Zm-126.011 0v5.6h-20.988v-5.6h20.988Zm188.974 0v5.6H8.297v-5.6h20.987Zm-377.949 0v5.6h-20.987v-5.6h20.987Zm-62.963 0v5.6h-20.987v-5.6h20.987Zm126.012 0v5.6h-20.988v-5.6h20.988Zm188.974 0v5.6h-20.987v-5.6h20.987Zm188.975 0v5.6H71.345v-5.6h20.988Zm94.444-11.19v5.59H165.79v-5.59h20.987Zm-692.849 0v5.59h-20.988v-5.59h20.988Zm314.9 0v5.59h-20.987v-5.59h20.987Zm-188.974 0v5.59h-20.988v-5.59h20.988Zm440.997 0v5.59H39.864v-5.59h20.987Zm-126.011 0v5.59h-20.988v-5.59h20.988Zm-377.949 0v5.59h-20.988v-5.59h20.988Zm314.986 0v5.59h-20.988v-5.59h20.988Zm-188.975 0v5.59h-20.987v-5.59h20.987Zm440.912 0v5.59h-20.987v-5.59h20.987Zm-126.011 0v5.59h-20.988v-5.59h20.988Zm-251.938 0v5.59h-20.987v-5.59h20.987Zm31.482-11.2v5.6h-20.988v-5.6h20.988Zm440.912 0v5.6h-20.988v-5.6h20.988Zm-692.85 0v5.6h-20.988v-5.6h20.988Zm188.975 0v5.6h-20.988v-5.6h20.988Zm251.937 0v5.6h-20.987v-5.6h20.987Zm62.963 0v5.6H8.297v-5.6h20.987Zm126.012 0v5.6h-20.988v-5.6h20.988Zm-566.924 0v5.6h-20.987v-5.6h20.987Zm503.961 0v5.6H71.345v-5.6h20.988Zm-188.975 0v5.6h-20.987v-5.6h20.987Zm-252.023 0v5.6h-20.987v-5.6h20.987Zm188.975 0v5.6h-20.988v-5.6h20.988Zm157.493-11.2v5.6h-20.988v-5.6h20.988Zm-188.975 0v5.6h-20.987v-5.6h20.987Zm-314.9 0v5.6h-20.988v-5.6h20.988Zm188.974 0v5.6h-20.987v-5.6h20.987Zm440.912 0v5.6h-20.987v-5.6h20.987Zm62.963 0v5.6H165.79v-5.6h20.987Zm-440.912 0v5.6h-20.987v-5.6h20.987Zm126.012 0v5.6h-20.988v-5.6h20.988Zm62.963 0v5.6h-20.988v-5.6h20.988Zm126.011 0v5.6H39.864v-5.6h20.987Zm-440.997 0v5.6h-20.988v-5.6h20.988Zm-62.963 0v5.6h-20.988v-5.6h20.988Zm472.393-11.199v5.599H8.297v-5.599h20.987Zm-377.949 0v5.599h-20.987v-5.599h20.987Zm440.998 0v5.599H71.345v-5.599h20.988Zm-314.986 0v5.599h-20.988v-5.599h20.988Zm126.011 0v5.599h-20.987v-5.599h20.987Zm-188.974 0v5.599h-20.988v-5.599h20.988Zm125.926 0v5.599h-20.988v-5.599h20.988Zm126.011 0v5.599h-20.987v-5.599h20.987Zm251.938 0v5.599h-20.988v-5.599h20.988Zm-692.85 0v5.599h-20.988v-5.599h20.988Zm629.887 0v5.599h-20.988v-5.599h20.988Zm-566.924 0v5.599h-20.987v-5.599h20.987Zm220.456-11.198v5.599h-20.987v-5.599h20.987Zm-251.937 0v5.599h-20.988v-5.599h20.988Zm377.949 0v5.599h-20.988v-5.599h20.988Zm-188.975 0v5.599h-20.987v-5.599h20.987Zm126.012 0v5.599h-20.988v-5.599h20.988Zm251.937 0v5.599h-20.987v-5.599h20.987Zm62.963 0v5.599H165.79v-5.599h20.987Zm-566.923 0v5.599h-20.988v-5.599h20.988Zm440.997 0v5.599H39.864v-5.599h20.987Zm-566.923 0v5.599h-20.988v-5.599h20.988Zm503.875 0v5.599h-20.988v-5.599h20.988Zm-314.901 0v5.599h-20.987v-5.599h20.987Zm472.394-11.198v5.599h-20.988v-5.599h20.988Zm-629.887 0v5.599h-20.988v-5.599h20.988Zm314.901 0v5.599h-20.988v-5.599h20.988Zm-188.975 0v5.599h-20.987v-5.599h20.987Zm-62.963 0v5.599h-20.987v-5.599h20.987Zm440.912 0v5.599H8.297v-5.599h20.987Zm188.975 0v5.599h-20.988v-5.599h20.988Zm-251.938 0v5.599h-20.987v-5.599h20.987Zm-62.963 0v5.599h-20.987v-5.599h20.987Zm-188.974 0v5.599h-20.988v-5.599h20.988Zm62.963 0v5.599h-20.988v-5.599h20.988Zm314.986 0v5.599H71.345v-5.599h20.988Zm-220.456-11.198v5.599h-20.988v-5.599h20.988Zm-252.023 0v5.599h-20.988v-5.599h20.988Zm63.048 0v5.599h-20.987v-5.599h20.987Zm314.901 0v5.599h-20.988v-5.599h20.988Zm188.974 0v5.599H165.79v-5.599h20.987Zm-692.849 0v5.599h-20.988v-5.599h20.988Zm566.923 0v5.599H39.864v-5.599h20.987Zm62.963 0v5.599h-20.987v-5.599h20.987Zm-314.986 0v5.599h-20.987v-5.599h20.987Zm126.012 0v5.599h-20.988v-5.599h20.988Zm-377.949 0v5.599h-20.988v-5.599h20.988Zm188.974 0v5.599h-20.987v-5.599h20.987Zm-31.481-11.198v5.599h-20.988v-5.599h20.988Zm-188.975 0v5.599h-20.988v-5.599h20.988Zm314.901 0v5.599h-20.988v-5.599h20.988Zm377.949 0v5.599h-20.988v-5.599h20.988Zm-125.926 0v5.599H71.345v-5.599h20.988Zm62.963 0v5.599h-20.988v-5.599h20.988Zm-566.924 0v5.599h-20.987v-5.599h20.987Zm62.963 0v5.599h-20.987v-5.599h20.987Zm252.023 0v5.599h-20.987v-5.599h20.987Zm62.963 0v5.599h-20.987v-5.599h20.987Zm62.963 0v5.599H8.297v-5.599h20.987Zm-251.937 0v5.599h-20.988v-5.599h20.988Zm-283.419-11.198v5.599h-20.988v-5.599h20.988Zm629.886 0v5.599h-20.987v-5.599h20.987Zm-566.923 0v5.599h-20.988v-5.599h20.988Zm503.96 0v5.599H39.864v-5.599h20.987Zm125.926 0v5.599H165.79v-5.599h20.987Zm-566.923 0v5.599h-20.988v-5.599h20.988Zm63.048 0v5.599h-20.987v-5.599h20.987Zm188.975 0v5.599h-20.988v-5.599h20.988Zm62.963 0v5.599h-20.988v-5.599h20.988Zm62.963 0v5.599h-20.988v-5.599h20.988Zm-188.975 0v5.599h-20.987v-5.599h20.987Zm-62.963 0v5.599h-20.987v-5.599h20.987Zm157.493-11.198v5.599h-20.987v-5.599h20.987Zm62.963 0v5.599h-20.987v-5.599h20.987Zm-251.937 0v5.599h-20.988v-5.599h20.988Zm62.963 0v5.599h-20.988v-5.599h20.988Zm251.937 0v5.599H8.297v-5.599h20.987Zm-188.974 0v5.599h-20.988v-5.599h20.988Zm-188.975 0v5.599h-20.987v-5.599h20.987Zm566.924 0v5.599h-20.988v-5.599h20.988Zm-62.963 0v5.599h-20.988v-5.599h20.988Zm-566.924 0v5.599h-20.987v-5.599h20.987Zm-62.963 0v5.599h-20.988v-5.599h20.988Zm566.924 0v5.599H71.345v-5.599h20.988Zm-535.442-11.198v5.599h-20.988v-5.599h20.988Zm314.986 0v5.599h-20.988v-5.599h20.988Zm251.937 0v5.599h-20.987v-5.599h20.987Zm-629.886 0v5.599h-20.988v-5.599h20.988Zm566.923 0v5.599H39.864v-5.599h20.987Zm-314.986 0v5.599h-20.987v-5.599h20.987Zm-62.963 0v5.599h-20.987v-5.599h20.987Zm-63.048 0v5.599h-20.988v-5.599h20.988Zm566.923 0v5.599H165.79v-5.599h20.987Zm-377.949 0v5.599h-20.987v-5.599h20.987Zm126.012 0v5.599h-20.988v-5.599h20.988Zm62.963 0v5.599h-20.988v-5.599h20.988Zm157.493-11.198v5.599h-20.988v-5.599h20.988Zm-126.012 0v5.599H8.297v-5.599h20.987Zm188.975 0v5.599h-20.988v-5.599h20.988Zm-251.938 0v5.599h-20.987v-5.599h20.987Zm-188.974 0v5.599h-20.988v-5.599h20.988Zm-188.975 0v5.599h-20.987v-5.599h20.987Zm251.938 0v5.599h-20.988v-5.599h20.988Zm252.023 0v5.599H71.345v-5.599h20.988Zm-566.924 0v5.599h-20.988v-5.599h20.988Zm188.975 0v5.599h-20.988v-5.599h20.988Zm-63.049 0v5.599h-20.987v-5.599h20.987Zm252.023 0v5.599h-20.987v-5.599h20.987Zm94.445-11.198v5.599h-20.988v-5.599h20.988Zm126.011 0v5.599h-20.987v-5.599h20.987Zm-62.963 0v5.599H39.864v-5.599h20.987Zm-314.986 0v5.599h-20.987v-5.599h20.987Zm-126.011 0v5.599h-20.988v-5.599h20.988Zm-62.963 0v5.599h-20.988v-5.599h20.988Zm126.011 0v5.599h-20.987v-5.599h20.987Zm125.926 0v5.599h-20.987v-5.599h20.987Zm63.049 0v5.599h-20.988v-5.599h20.988Zm62.963 0v5.599h-20.988v-5.599h20.988Zm251.937 0v5.599H165.79v-5.599h20.987Zm-692.849 0v5.599h-20.988v-5.599h20.988Zm661.368-11.198v5.599h-20.988v-5.599h20.988Zm-126.012 0v5.599H8.297v-5.599h20.987Zm-503.875 0v5.599h-20.988v-5.599h20.988Zm125.926 0v5.599h-20.987v-5.599h20.987Zm126.012 0v5.599h-20.988v-5.599h20.988Zm314.986 0v5.599H71.345v-5.599h20.988Zm-252.023 0v5.599h-20.988v-5.599h20.988Zm-251.938 0v5.599h-20.987v-5.599h20.987Zm629.887 0v5.599h-20.988v-5.599h20.988Zm-314.901 0v5.599h-20.987v-5.599h20.987Zm62.963 0v5.599h-20.987v-5.599h20.987Zm-251.937 0v5.599h-20.988v-5.599h20.988Zm-94.53-11.198v5.599h-20.988v-5.599h20.988Zm63.048 0v5.599h-20.987v-5.599h20.987Zm-188.974 0v5.599h-20.988v-5.599h20.988Zm692.849 0v5.599H165.79v-5.599h20.987Zm-440.912 0v5.599h-20.987v-5.599h20.987Zm62.963 0v5.599h-20.987v-5.599h20.987Zm252.023 0v5.599H39.864v-5.599h20.987Zm62.963 0v5.599h-20.987v-5.599h20.987Zm-126.011 0v5.599h-20.988v-5.599h20.988Zm-440.912 0v5.599h-20.988v-5.599h20.988Zm314.986 0v5.599h-20.988v-5.599h20.988Zm62.963 0v5.599h-20.988v-5.599h20.988Zm94.444-11.198v5.599H8.297v-5.599h20.987Zm-314.9 0v5.599h-20.988v-5.599h20.988Zm-126.012 0v5.599h-20.987v-5.599h20.987Zm251.938 0v5.599h-20.988v-5.599h20.988Zm-62.963 0v5.599h-20.988v-5.599h20.988Zm377.949 0v5.599h-20.988v-5.599h20.988Zm-629.887 0v5.599h-20.988v-5.599h20.988Zm440.912 0v5.599h-20.987v-5.599h20.987Zm-62.963 0v5.599h-20.987v-5.599h20.987Zm188.975 0v5.599H71.345v-5.599h20.988Zm-440.998 0v5.599h-20.987v-5.599h20.987Zm566.924 0v5.599h-20.988v-5.599h20.988Zm-346.382-11.198v5.599h-20.988v-5.599h20.988Zm-126.012 0v5.599h-20.987v-5.599h20.987Zm-126.011 0v5.599h-20.988v-5.599h20.988Zm-62.963 0v5.599h-20.988v-5.599h20.988Zm629.886 0v5.599H165.79v-5.599h20.987Zm-62.963 0v5.599h-20.987v-5.599h20.987Zm-629.886 0v5.599h-20.988v-5.599h20.988Zm314.9 0v5.599h-20.987v-5.599h20.987Zm252.023 0v5.599H39.864v-5.599h20.987Zm-377.949 0v5.599h-20.987v-5.599h20.987Zm314.901 0v5.599h-20.988v-5.599h20.988Zm-62.963 0v5.599h-20.988v-5.599h20.988Zm-94.53-11.198v5.599h-20.988v-5.599h20.988Zm188.974 0v5.599H8.297v-5.599h20.987Zm-125.926 0v5.599h-20.987v-5.599h20.987Zm-126.011 0v5.599h-20.988v-5.599h20.988Zm440.912 0v5.599h-20.988v-5.599h20.988Zm-125.926 0v5.599H71.345v-5.599h20.988Zm-566.924 0v5.599h-20.988v-5.599h20.988Zm440.912 0v5.599h-20.987v-5.599h20.987Zm-377.949 0v5.599h-20.987v-5.599h20.987Zm126.012 0v5.599h-20.988v-5.599h20.988Zm440.912 0v5.599h-20.988v-5.599h20.988Zm-503.961 0v5.599h-20.987v-5.599h20.987Zm472.479-11.198v5.599h-20.987v-5.599h20.987Zm-566.923 0v5.599h-20.988v-5.599h20.988Zm377.949 0v5.599h-20.988v-5.599h20.988Zm-314.986 0v5.599h-20.988v-5.599h20.988Zm377.949 0v5.599h-20.988v-5.599h20.988Zm63.048 0v5.599H39.864v-5.599h20.987Zm-188.974 0v5.599h-20.988v-5.599h20.988Zm314.9 0v5.599H165.79v-5.599h20.987Zm-503.875 0v5.599h-20.987v-5.599h20.987Zm125.926 0v5.599h-20.987v-5.599h20.987Zm-62.963 0v5.599h-20.987v-5.599h20.987Zm-251.937 0v5.599h-20.988v-5.599h20.988Zm31.481-11.198v5.599h-20.988v-5.599h20.988Zm251.938 0v5.599h-20.988v-5.599h20.988Zm440.912 0v5.599h-20.988v-5.599h20.988Zm-377.949 0v5.599h-20.988v-5.599h20.988Zm-125.926 0v5.599h-20.988v-5.599h20.988Zm-63.049 0v5.599h-20.987v-5.599h20.987Zm503.961 0v5.599h-20.988v-5.599h20.988Zm-126.012 0v5.599H8.297v-5.599h20.987Zm-62.963 0v5.599h-20.987v-5.599h20.987Zm126.012 0v5.599H71.345v-5.599h20.988Zm-503.961 0v5.599h-20.987v-5.599h20.987Zm314.986 0v5.599h-20.987v-5.599h20.987Zm283.419-11.198v5.624H165.79v-5.624h20.987Zm-314.9 0v5.624h-20.988v-5.624h20.988Zm-126.012 0v5.624h-20.987v-5.624h20.987Zm251.938 0v5.624h-20.988v-5.624h20.988Zm-503.875 0v5.624h-20.988v-5.624h20.988Zm440.912 0v5.624h-20.988v-5.624h20.988Zm-314.986 0v5.624h-20.988v-5.624h20.988Zm503.96 0v5.624h-20.987v-5.624h20.987Zm-440.912 0v5.624h-20.987v-5.624h20.987Zm125.926 0v5.624h-20.987v-5.624h20.987Zm252.023 0v5.624H39.864v-5.624h20.987Zm-503.96 0v5.624h-20.988v-5.624h20.988Zm535.442-11.173v5.599H71.345v-5.599h20.988Zm-314.986 0v5.599h-20.988v-5.599h20.988Zm377.949 0v5.599h-20.988v-5.599h20.988Zm-503.961 0v5.599h-20.987v-5.599h20.987Zm377.949 0v5.599H8.297v-5.599h20.987Zm-503.875 0v5.599h-20.988v-5.599h20.988Zm692.85 0v5.599h-20.988v-5.599h20.988Zm-629.887 0v5.599h-20.987v-5.599h20.987Zm251.938 0v5.599h-20.988v-5.599h20.988Zm-125.926 0v5.599h-20.988v-5.599h20.988Zm251.937 0v5.599h-20.987v-5.599h20.987Zm-62.963 0v5.599h-20.987v-5.599h20.987Zm220.456-11.198v5.599h-20.987v-5.599h20.987Zm-440.912 0v5.599h-20.987v-5.599h20.987Zm62.963 0v5.599h-20.987v-5.599h20.987Zm-188.974 0v5.599h-20.988v-5.599h20.988Zm377.949 0v5.599h-20.988v-5.599h20.988Zm-62.963 0v5.599h-20.988v-5.599h20.988Zm-252.023 0v5.599h-20.988v-5.599h20.988Zm188.974 0v5.599h-20.987v-5.599h20.987Zm252.023 0v5.599H39.864v-5.599h20.987Zm125.926 0v5.599H165.79v-5.599h20.987Zm-692.849 0v5.599h-20.988v-5.599h20.988Zm503.875 0v5.599h-20.988v-5.599h20.988Zm220.456-11.198v5.599h-20.988v-5.599h20.988Zm-62.963 0v5.599h-20.988v-5.599h20.988Zm-377.949 0v5.599h-20.988v-5.599h20.988Zm188.974 0v5.599h-20.987v-5.599h20.987Zm-126.011 0v5.599h-20.988v-5.599h20.988Zm-314.901 0v5.599h-20.988v-5.599h20.988Zm503.875 0v5.599H8.297v-5.599h20.987Zm-377.949 0v5.599h-20.987v-5.599h20.987Zm-62.963 0v5.599h-20.987v-5.599h20.987Zm126.012 0v5.599h-20.988v-5.599h20.988Zm188.974 0v5.599h-20.987v-5.599h20.987Zm188.975 0v5.599H71.345v-5.599h20.988Zm-598.405-11.198v5.599h-20.988v-5.599h20.988Zm314.9 0v5.599h-20.987v-5.599h20.987Zm-188.974 0v5.599h-20.988v-5.599h20.988Zm440.997 0v5.599H39.864v-5.599h20.987Zm-126.011 0v5.599h-20.988v-5.599h20.988Zm-377.949 0v5.599h-20.988v-5.599h20.988Zm314.986 0v5.599h-20.988v-5.599h20.988Zm-188.975 0v5.599h-20.987v-5.599h20.987Zm440.912 0v5.599h-20.987v-5.599h20.987Zm-126.011 0v5.599h-20.988v-5.599h20.988Zm-251.938 0v5.599h-20.987v-5.599h20.987Zm440.912 0v5.599H165.79v-5.599h20.987Zm-598.405-11.198v5.599h-20.987v-5.599h20.987Zm-62.963 0v5.599h-20.988v-5.599h20.988Zm188.975 0v5.599h-20.988v-5.599h20.988Zm251.937 0v5.599h-20.987v-5.599h20.987Zm62.963 0v5.599H8.297v-5.599h20.987Zm126.012 0v5.599h-20.988v-5.599h20.988Zm-62.963 0v5.599H71.345v-5.599h20.988Zm-188.975 0v5.599h-20.987v-5.599h20.987Zm-252.023 0v5.599h-20.987v-5.599h20.987Zm188.975 0v5.599h-20.988v-5.599h20.988Zm-62.963 0v5.599h-20.988v-5.599h20.988Zm440.912 0v5.599h-20.988v-5.599h20.988Zm-661.368-11.198v5.599h-20.988v-5.599h20.988Zm-62.963 0v5.599h-20.988v-5.599h20.988Zm188.974 0v5.599h-20.987v-5.599h20.987Zm440.912 0v5.599h-20.987v-5.599h20.987Zm62.963 0v5.599H165.79v-5.599h20.987Zm-188.974 0v5.599h-20.988v-5.599h20.988Zm-188.975 0v5.599h-20.987v-5.599h20.987Zm-62.963 0v5.599h-20.987v-5.599h20.987Zm126.012 0v5.599h-20.988v-5.599h20.988Zm62.963 0v5.599h-20.988v-5.599h20.988Zm126.011 0v5.599H39.864v-5.599h20.987Zm-440.997 0v5.599h-20.988v-5.599h20.988Zm31.481-11.198v5.599h-20.987v-5.599h20.987Zm440.998 0v5.599H71.345v-5.599h20.988Zm-314.986 0v5.599h-20.988v-5.599h20.988Zm126.011 0v5.599h-20.987v-5.599h20.987Zm-188.974 0v5.599h-20.988v-5.599h20.988Zm125.926 0v5.599h-20.988v-5.599h20.988Zm126.011 0v5.599h-20.987v-5.599h20.987Zm251.938 0v5.599h-20.988v-5.599h20.988Zm-692.85 0v5.599h-20.988v-5.599h20.988Zm629.887 0v5.599h-20.988v-5.599h20.988Zm-566.924 0v5.599h-20.987v-5.599h20.987Zm440.912 0v5.599H8.297v-5.599h20.987Zm-409.43-11.198v5.599h-20.988v-5.599h20.988Zm314.986 0v5.599h-20.988v-5.599h20.988Zm-188.975 0v5.599h-20.987v-5.599h20.987Zm126.012 0v5.599h-20.988v-5.599h20.988Zm251.937 0v5.599h-20.987v-5.599h20.987Zm-314.986 0v5.599h-20.987v-5.599h20.987Zm-251.937 0v5.599h-20.988v-5.599h20.988Zm503.96 0v5.599H39.864v-5.599h20.987Zm-566.923 0v5.599h-20.988v-5.599h20.988Zm503.875 0v5.599h-20.988v-5.599h20.988Zm-314.901 0v5.599h-20.987v-5.599h20.987Zm503.875 0v5.599H165.79v-5.599h20.987Zm-661.368-11.198v5.599h-20.988v-5.599h20.988Zm314.901 0v5.599h-20.988v-5.599h20.988Zm-188.975 0v5.599h-20.987v-5.599h20.987Zm-62.963 0v5.599h-20.987v-5.599h20.987Zm440.912 0v5.599H8.297v-5.599h20.987Zm126.012 0v5.599h-20.988v-5.599h20.988Zm62.963 0v5.599h-20.988v-5.599h20.988Zm-251.938 0v5.599h-20.987v-5.599h20.987Zm-62.963 0v5.599h-20.987v-5.599h20.987Zm-188.974 0v5.599h-20.988v-5.599h20.988Zm62.963 0v5.599h-20.988v-5.599h20.988Zm314.986 0v5.599H71.345v-5.599h20.988Zm-472.479-11.198v5.599h-20.988v-5.599h20.988Zm63.048 0v5.599h-20.987v-5.599h20.987Zm314.901 0v5.599h-20.988v-5.599h20.988Zm188.974 0v5.599H165.79v-5.599h20.987Zm-692.849 0v5.599h-20.988v-5.599h20.988Zm566.923 0v5.599H39.864v-5.599h20.987Zm62.963 0v5.599h-20.987v-5.599h20.987Zm-314.986 0v5.599h-20.987v-5.599h20.987Zm126.012 0v5.599h-20.988v-5.599h20.988Zm-377.949 0v5.599h-20.988v-5.599h20.988Zm188.974 0v5.599h-20.987v-5.599h20.987Zm126.012 0v5.599h-20.988v-5.599h20.988Zm-157.493-11.198v5.599h-20.988v-5.599h20.988Zm125.926 0v5.599h-20.988v-5.599h20.988Zm377.949 0v5.599h-20.988v-5.599h20.988Zm-125.926 0v5.599H71.345v-5.599h20.988Zm62.963 0v5.599h-20.988v-5.599h20.988Zm-566.924 0v5.599h-20.987v-5.599h20.987Zm62.963 0v5.599h-20.987v-5.599h20.987Zm-125.926 0v5.599h-20.988v-5.599h20.988Zm377.949 0v5.599h-20.987v-5.599h20.987Zm62.963 0v5.599h-20.987v-5.599h20.987Zm62.963 0v5.599H8.297v-5.599h20.987Zm-251.937 0v5.599h-20.988v-5.599h20.988Zm-31.482-11.198v5.599h-20.987v-5.599h20.987Zm377.949 0v5.599h-20.987v-5.599h20.987Zm-566.923 0v5.599h-20.988v-5.599h20.988Zm503.96 0v5.599H39.864v-5.599h20.987Zm125.926 0v5.599H165.79v-5.599h20.987Zm-566.923 0v5.599h-20.988v-5.599h20.988Zm-125.926 0v5.599h-20.988v-5.599h20.988Zm188.974 0v5.599h-20.987v-5.599h20.987Zm188.975 0v5.599h-20.988v-5.599h20.988Zm62.963 0v5.599h-20.988v-5.599h20.988Zm62.963 0v5.599h-20.988v-5.599h20.988Zm-188.975 0v5.599h-20.987v-5.599h20.987Zm157.493-11.198v5.599h-20.987v-5.599h20.987Zm-251.937 0v5.599h-20.988v-5.599h20.988Zm62.963 0v5.599h-20.988v-5.599h20.988Zm251.937 0v5.599H8.297v-5.599h20.987Zm-188.974 0v5.599h-20.988v-5.599h20.988Zm-188.975 0v5.599h-20.987v-5.599h20.987Zm566.924 0v5.599h-20.988v-5.599h20.988Zm-62.963 0v5.599h-20.988v-5.599h20.988Zm-566.924 0v5.599h-20.987v-5.599h20.987Zm-62.963 0v5.599h-20.988v-5.599h20.988Zm566.924 0v5.599H71.345v-5.599h20.988Zm-188.975 0v5.599h-20.987v-5.599h20.987Zm-283.504-11.198v5.599h-20.988v-5.599h20.988Zm503.96 0v5.599h-20.987v-5.599h20.987Zm-629.886 0v5.599h-20.988v-5.599h20.988Zm566.923 0v5.599H39.864v-5.599h20.987Zm-314.986 0v5.599h-20.987v-5.599h20.987Zm-188.974 0v5.599h-20.988v-5.599h20.988Zm314.986 0v5.599h-20.988v-5.599h20.988Zm314.9 0v5.599H165.79v-5.599h20.987Zm-377.949 0v5.599h-20.987v-5.599h20.987Zm126.012 0v5.599h-20.988v-5.599h20.988Zm62.963 0v5.599h-20.988v-5.599h20.988Zm-314.901 0v5.599h-20.987v-5.599h20.987ZM29.284 587.26v5.599H8.297v-5.599h20.987Zm188.975 0v5.599h-20.988v-5.599h20.988Zm-251.938 0v5.599h-20.987v-5.599h20.987Zm-188.974 0v5.599h-20.988v-5.599h20.988Zm-188.975 0v5.599h-20.987v-5.599h20.987Zm566.924 0v5.599h-20.988v-5.599h20.988Zm-314.986 0v5.599h-20.988v-5.599h20.988Zm252.023 0v5.599H71.345v-5.599h20.988Zm-566.924 0v5.599h-20.988v-5.599h20.988Zm188.975 0v5.599h-20.988v-5.599h20.988Zm-63.049 0v5.599h-20.987v-5.599h20.987Zm252.023 0v5.599h-20.987v-5.599h20.987Zm220.456-11.198v5.599h-20.987v-5.599h20.987Zm-62.963 0v5.599H39.864v-5.599h20.987Zm-314.986 0v5.599h-20.987v-5.599h20.987Zm-126.011 0v5.599h-20.988v-5.599h20.988Zm-62.963 0v5.599h-20.988v-5.599h20.988Zm126.011 0v5.599h-20.987v-5.599h20.987Zm125.926 0v5.599h-20.987v-5.599h20.987Zm63.049 0v5.599h-20.988v-5.599h20.988Zm62.963 0v5.599h-20.988v-5.599h20.988Zm251.937 0v5.599H165.79v-5.599h20.987Zm-692.849 0v5.599h-20.988v-5.599h20.988Zm503.875 0v5.599h-20.988v-5.599h20.988Zm-157.493-11.198v5.599h-20.988v-5.599h20.988Zm-314.901 0v5.599h-20.988v-5.599h20.988Zm125.926 0v5.599h-20.987v-5.599h20.987Zm126.012 0v5.599h-20.988v-5.599h20.988Zm314.986 0v5.599H71.345v-5.599h20.988Zm62.963 0v5.599h-20.988v-5.599h20.988Zm-126.012 0v5.599H8.297v-5.599h20.987Zm-440.912 0v5.599h-20.987v-5.599h20.987Zm629.887 0v5.599h-20.988v-5.599h20.988Zm-314.901 0v5.599h-20.987v-5.599h20.987Zm62.963 0v5.599h-20.987v-5.599h20.987Zm-251.937 0v5.599h-20.988v-5.599h20.988Zm-31.482-11.198v5.6h-20.987v-5.6h20.987Zm-188.974 0v5.6h-20.988v-5.6h20.988Zm692.849 0v5.6H165.79v-5.6h20.987Zm-440.912 0v5.6h-20.987v-5.6h20.987Zm62.963 0v5.6h-20.987v-5.6h20.987Zm252.023 0v5.6H39.864v-5.6h20.987Zm62.963 0v5.6h-20.987v-5.6h20.987Zm-126.011 0v5.6h-20.988v-5.6h20.988Zm-440.912 0v5.6h-20.988v-5.6h20.988Zm314.986 0v5.6h-20.988v-5.6h20.988Zm62.963 0v5.6h-20.988v-5.6h20.988Zm-314.986 0v5.6h-20.988v-5.6h20.988Zm94.53-11.197v5.598h-20.988v-5.598h20.988Zm-126.012 0v5.598h-20.987v-5.598h20.987Zm251.938 0v5.598h-20.988v-5.598h20.988Zm-62.963 0v5.598h-20.988v-5.598h20.988Zm377.949 0v5.598h-20.988v-5.598h20.988Zm-629.887 0v5.598h-20.988v-5.598h20.988Zm440.912 0v5.598h-20.987v-5.598h20.987Zm-62.963 0v5.598h-20.987v-5.598h20.987Zm188.975 0v5.598H71.345v-5.598h20.988Zm-440.998 0v5.598h-20.987v-5.598h20.987Zm566.924 0v5.598h-20.988v-5.598h20.988Zm-188.975 0v5.598H8.297v-5.598h20.987Zm-283.419-11.198v5.599h-20.987v-5.599h20.987Zm-126.011 0v5.599h-20.988v-5.599h20.988Zm-62.963 0v5.599h-20.988v-5.599h20.988Zm629.886 0v5.599H165.79v-5.599h20.987Zm-62.963 0v5.599h-20.987v-5.599h20.987Zm-629.886 0v5.599h-20.988v-5.599h20.988Zm314.9 0v5.599h-20.987v-5.599h20.987Zm252.023 0v5.599H39.864v-5.599h20.987Zm-377.949 0v5.599h-20.987v-5.599h20.987Zm314.901 0v5.599h-20.988v-5.599h20.988Zm-62.963 0v5.599h-20.988v-5.599h20.988Zm-62.963 0v5.599h-20.988v-5.599h20.988Zm157.407-11.198v5.599H8.297v-5.599h20.987Zm-125.926 0v5.599h-20.987v-5.599h20.987Zm-126.011 0v5.599h-20.988v-5.599h20.988Zm440.912 0v5.599h-20.988v-5.599h20.988Zm-125.926 0v5.599H71.345v-5.599h20.988Zm-252.023 0v5.599h-20.988v-5.599h20.988Zm-314.901 0v5.599h-20.988v-5.599h20.988Zm440.912 0v5.599h-20.987v-5.599h20.987Zm-377.949 0v5.599h-20.987v-5.599h20.987Zm126.012 0v5.599h-20.988v-5.599h20.988Zm440.912 0v5.599h-20.988v-5.599h20.988Zm-503.961 0v5.599h-20.987v-5.599h20.987Zm-94.444-11.198v5.599h-20.988v-5.599h20.988Zm377.949 0v5.599h-20.988v-5.599h20.988Zm-314.986 0v5.599h-20.988v-5.599h20.988Zm377.949 0v5.599h-20.988v-5.599h20.988Zm63.048 0v5.599H39.864v-5.599h20.987Zm-188.974 0v5.599h-20.988v-5.599h20.988Zm314.9 0v5.599H165.79v-5.599h20.987Zm-503.875 0v5.599h-20.987v-5.599h20.987Zm125.926 0v5.599h-20.987v-5.599h20.987Zm-62.963 0v5.599h-20.987v-5.599h20.987Zm-251.937 0v5.599h-20.988v-5.599h20.988Zm629.886 0v5.599h-20.987v-5.599h20.987Zm-346.467-11.198v5.599h-20.988v-5.599h20.988Zm440.912 0v5.599h-20.988v-5.599h20.988Zm-377.949 0v5.599h-20.988v-5.599h20.988Zm-125.926 0v5.599h-20.988v-5.599h20.988Zm-63.049 0v5.599h-20.987v-5.599h20.987Zm503.961 0v5.599h-20.988v-5.599h20.988Zm-126.012 0v5.599H8.297v-5.599h20.987Zm-62.963 0v5.599h-20.987v-5.599h20.987Zm126.012 0v5.599H71.345v-5.599h20.988Zm-503.961 0v5.599h-20.987v-5.599h20.987Zm314.986 0v5.599h-20.987v-5.599h20.987Zm-377.949 0v5.599h-20.988v-5.599h20.988Zm346.468-11.198v5.599h-20.988v-5.599h20.988Zm-126.012 5.599h-20.987v-5.599h20.987v5.599Zm377.949 0h-20.987v-5.599h20.987v5.599Zm-629.886 0h-20.988v-5.599h20.988v5.599Zm692.849 0H165.79v-5.599h20.987v5.599Zm-503.875 0h-20.987v-5.599h20.987v5.599Zm377.949 0H39.864v-5.599h20.987v5.599Zm-126.011 0h-20.988v-5.599h20.988v5.599Zm62.963 0h-20.988v-5.599h20.988v5.599Zm-377.949 0h-20.988v-5.599h20.988v5.599Zm188.974 0h-20.987v-5.599h20.987v5.599Zm-251.937 0h-20.988v-5.599h20.988v5.599Zm220.456-16.797v5.599h-20.988v-5.599h20.988Zm377.949 0v5.599h-20.988v-5.599h20.988Zm-503.961 0v5.599h-20.987v-5.599h20.987Zm377.949 0v5.599H8.297v-5.599h20.987Zm-503.875 0v5.599h-20.988v-5.599h20.988Zm692.85 0v5.599h-20.988v-5.599h20.988Zm-629.887 0v5.599h-20.987v-5.599h20.987Zm251.938 0v5.599h-20.988v-5.599h20.988Zm-125.926 0v5.599h-20.988v-5.599h20.988Zm251.937 0v5.599h-20.987v-5.599h20.987Zm-62.963 0v5.599h-20.987v-5.599h20.987Zm188.975 0v5.599H71.345v-5.599h20.988Zm-472.479-11.198v5.599h-20.988v-5.599h20.988Zm63.048 0v5.599h-20.987v-5.599h20.987Zm62.963 0v5.599h-20.987v-5.599h20.987Zm-188.974 0v5.599h-20.988v-5.599h20.988Zm377.949 0v5.599h-20.988v-5.599h20.988Zm-62.963 0v5.599h-20.988v-5.599h20.988Zm251.937 0v5.599h-20.987v-5.599h20.987Zm-314.986 0v5.599h-20.987v-5.599h20.987Zm252.023 0v5.599H39.864v-5.599h20.987Zm125.926 0v5.599H165.79v-5.599h20.987Zm-692.849 0v5.599h-20.988v-5.599h20.988Zm503.875 0v5.599h-20.988v-5.599h20.988Zm220.456-11.198v5.599h-20.988v-5.599h20.988Zm-62.963 0v5.599h-20.988v-5.599h20.988Zm-377.949 0v5.599h-20.988v-5.599h20.988Zm188.974 0v5.599h-20.987v-5.599h20.987Zm-126.011 0v5.599h-20.988v-5.599h20.988Zm-314.901 0v5.599h-20.988v-5.599h20.988Zm503.875 0v5.599H8.297v-5.599h20.987Zm-377.949 0v5.599h-20.987v-5.599h20.987Zm-62.963 0v5.599h-20.987v-5.599h20.987Zm126.012 0v5.599h-20.988v-5.599h20.988Zm188.974 0v5.599h-20.987v-5.599h20.987Zm188.975 0v5.599H71.345v-5.599h20.988Zm-598.405-11.198v5.599h-20.988v-5.599h20.988Zm314.9 0v5.599h-20.987v-5.599h20.987Zm-188.974 0v5.599h-20.988v-5.599h20.988Zm440.997 0v5.599H39.864v-5.599h20.987Zm-126.011 0v5.599h-20.988v-5.599h20.988Zm-377.949 0v5.599h-20.988v-5.599h20.988Zm314.986 0v5.599h-20.988v-5.599h20.988Zm-188.975 0v5.599h-20.987v-5.599h20.987Zm440.912 0v5.599h-20.987v-5.599h20.987Zm-126.011 0v5.599h-20.988v-5.599h20.988Zm-251.938 0v5.599h-20.987v-5.599h20.987Zm440.912 0v5.599H165.79v-5.599h20.987Zm31.482-11.198v5.599h-20.988v-5.599h20.988Zm-692.85 0v5.599h-20.988v-5.599h20.988Zm188.975 0v5.599h-20.988v-5.599h20.988Zm251.937 0v5.599h-20.987v-5.599h20.987Zm62.963 0v5.599H8.297v-5.599h20.987Zm126.012 0v5.599h-20.988v-5.599h20.988Zm-566.924 0v5.599h-20.987v-5.599h20.987Zm503.961 0v5.599H71.345v-5.599h20.988Zm-188.975 0v5.599h-20.987v-5.599h20.987Zm-252.023 0v5.599h-20.987v-5.599h20.987Zm188.975 0v5.599h-20.988v-5.599h20.988Zm-62.963 0v5.599h-20.988v-5.599h20.988Zm31.481-11.198v5.599h-20.987v-5.599h20.987Zm-314.9 0v5.599h-20.988v-5.599h20.988Zm188.974 0v5.599h-20.987v-5.599h20.987Zm440.912 0v5.599h-20.987v-5.599h20.987Zm62.963 0v5.599H165.79v-5.599h20.987Zm-188.974 0v5.599h-20.988v-5.599h20.988Zm-251.938 0v5.599h-20.987v-5.599h20.987Zm126.012 0v5.599h-20.988v-5.599h20.988Zm62.963 0v5.599h-20.988v-5.599h20.988Zm126.011 0v5.599H39.864v-5.599h20.987Zm-440.997 0v5.599h-20.988v-5.599h20.988Zm-62.963 0v5.599h-20.988v-5.599h20.988Zm94.444-11.198v5.599h-20.987v-5.599h20.987Zm440.998 0v5.599H71.345v-5.599h20.988Zm-314.986 0v5.599h-20.988v-5.599h20.988Zm126.011 0v5.599h-20.987v-5.599h20.987Zm-188.974 0v5.599h-20.988v-5.599h20.988Zm125.926 0v5.599h-20.988v-5.599h20.988Zm126.011 0v5.599h-20.987v-5.599h20.987Zm251.938 0v5.599h-20.988v-5.599h20.988Zm-692.85 0v5.599h-20.988v-5.599h20.988Zm629.887 0v5.599h-20.988v-5.599h20.988Zm-566.924 0v5.599h-20.987v-5.599h20.987Zm440.912 0v5.599H8.297v-5.599h20.987Zm-472.393-11.198v5.599h-20.988v-5.599h20.988Zm377.949 0v5.599h-20.988v-5.599h20.988Zm-188.975 0v5.599h-20.987v-5.599h20.987Zm126.012 0v5.599h-20.988v-5.599h20.988Zm251.937 0v5.599h-20.987v-5.599h20.987Zm-314.986 0v5.599h-20.987v-5.599h20.987Zm-188.974 0v5.599h-20.988v-5.599h20.988Zm440.997 0v5.599H39.864v-5.599h20.987Zm-566.923 0v5.599h-20.988v-5.599h20.988Zm503.875 0v5.599h-20.988v-5.599h20.988Zm-314.901 0v5.599h-20.987v-5.599h20.987Zm503.875 0v5.599H165.79v-5.599h20.987Zm-661.368-11.198v5.599h-20.988v-5.599h20.988Zm314.901 0v5.599h-20.988v-5.599h20.988Zm-188.975 0v5.599h-20.987v-5.599h20.987Zm-62.963 0v5.599h-20.987v-5.599h20.987Zm440.912 0v5.599H8.297v-5.599h20.987Zm126.012 0v5.599h-20.988v-5.599h20.988Zm62.963 0v5.599h-20.988v-5.599h20.988Zm-251.938 0v5.599h-20.987v-5.599h20.987Zm-62.963 0v5.599h-20.987v-5.599h20.987Zm-188.974 0v5.599h-20.988v-5.599h20.988Zm62.963 0v5.599h-20.988v-5.599h20.988Zm314.986 0v5.599H71.345v-5.599h20.988Zm-472.479-11.198v5.599h-20.988v-5.599h20.988Zm63.048 0v5.599h-20.987v-5.599h20.987Zm314.901 0v5.599h-20.988v-5.599h20.988Zm188.974 0v5.599H165.79v-5.599h20.987Zm-692.849 0v5.599h-20.988v-5.599h20.988Zm566.923 0v5.599H39.864v-5.599h20.987Zm62.963 0v5.599h-20.987v-5.599h20.987Zm-314.986 0v5.599h-20.987v-5.599h20.987Zm126.012 0v5.599h-20.988v-5.599h20.988Zm-377.949 0v5.599h-20.988v-5.599h20.988Zm188.974 0v5.599h-20.987v-5.599h20.987Zm126.012 0v5.599h-20.988v-5.599h20.988Zm-346.468-11.198v5.599h-20.988v-5.599h20.988Zm314.901 0v5.599h-20.988v-5.599h20.988Zm377.949 0v5.599h-20.988v-5.599h20.988Zm-125.926 0v5.599H71.345v-5.599h20.988Zm62.963 0v5.599h-20.988v-5.599h20.988Zm-566.924 0v5.599h-20.987v-5.599h20.987Zm62.963 0v5.599h-20.987v-5.599h20.987Zm252.023 0v5.599h-20.987v-5.599h20.987Zm62.963 0v5.599h-20.987v-5.599h20.987Zm62.963 0v5.599H8.297v-5.599h20.987Zm-251.937 0v5.599h-20.988v-5.599h20.988Zm-62.963 0v5.599h-20.988v-5.599h20.988Zm409.43-11.198v5.599h-20.987v-5.599h20.987Zm-566.923 0v5.599h-20.988v-5.599h20.988Zm503.96 0v5.599H39.864v-5.599h20.987Zm125.926 0v5.599H165.79v-5.599h20.987Zm-566.923 0v5.599h-20.988v-5.599h20.988Zm-125.926 0v5.599h-20.988v-5.599h20.988Zm188.974 0v5.599h-20.987v-5.599h20.987Zm188.975 0v5.599h-20.988v-5.599h20.988Zm62.963 0v5.599h-20.988v-5.599h20.988Zm62.963 0v5.599h-20.988v-5.599h20.988Zm-188.975 0v5.599h-20.987v-5.599h20.987Zm-62.963 0v5.599h-20.987v-5.599h20.987Zm220.456-11.198v5.599h-20.987v-5.599h20.987Zm-251.937 0v5.599h-20.988v-5.599h20.988Zm62.963 0v5.599h-20.988v-5.599h20.988Zm251.937 0v5.599H8.297v-5.599h20.987Zm-188.974 0v5.599h-20.988v-5.599h20.988Zm-188.975 0v5.599h-20.987v-5.599h20.987Zm566.924 0v5.599h-20.988v-5.599h20.988Zm-62.963 0v5.599h-20.988v-5.599h20.988Zm-566.924 0v5.599h-20.987v-5.599h20.987Zm-62.963 0v5.599h-20.988v-5.599h20.988Zm566.924 0v5.599H71.345v-5.599h20.988Zm-188.975 0v5.599h-20.987v-5.599h20.987Zm-31.481-11.198v5.599h-20.988v-5.599h20.988Zm251.937 0v5.599h-20.987v-5.599h20.987Zm-629.886 0v5.599h-20.988v-5.599h20.988Zm566.923 0v5.599H39.864v-5.599h20.987Zm-314.986 0v5.599h-20.987v-5.599h20.987Zm-188.974 0v5.599h-20.988v-5.599h20.988Zm62.963 0v5.599h-20.988v-5.599h20.988Zm566.923 0v5.599H165.79v-5.599h20.987Zm-377.949 0v5.599h-20.987v-5.599h20.987Zm126.012 0v5.599h-20.988v-5.599h20.988Zm62.963 0v5.599h-20.988v-5.599h20.988Zm-314.901 0v5.599h-20.987v-5.599h20.987Zm346.382-11.198v5.599H8.297v-5.599h20.987Zm188.975 0v5.599h-20.988v-5.599h20.988Zm-251.938 0v5.599h-20.987v-5.599h20.987Zm-188.974 0v5.599h-20.988v-5.599h20.988Zm-188.975 0v5.599h-20.987v-5.599h20.987Zm566.924 0v5.599h-20.988v-5.599h20.988Zm-314.986 0v5.599h-20.988v-5.599h20.988Zm252.023 0v5.599H71.345v-5.599h20.988Zm-566.924 0v5.599h-20.988v-5.599h20.988Zm188.975 0v5.599h-20.988v-5.599h20.988Zm-63.049 0v5.599h-20.987v-5.599h20.987Zm252.023 0v5.599h-20.987v-5.599h20.987Zm220.456-11.198v5.599h-20.987v-5.599h20.987Zm-62.963 0v5.599H39.864v-5.599h20.987Zm-314.986 0v5.599h-20.987v-5.599h20.987Zm-126.011 0v5.599h-20.988v-5.599h20.988Zm-62.963 0v5.599h-20.988v-5.599h20.988Zm126.011 0v5.599h-20.987v-5.599h20.987Zm125.926 0v5.599h-20.987v-5.599h20.987Zm63.049 0v5.599h-20.988v-5.599h20.988Zm62.963 0v5.599h-20.988v-5.599h20.988Zm251.937 0v5.599H165.79v-5.599h20.987Zm-692.849 0v5.599h-20.988v-5.599h20.988Zm503.875 0v5.599h-20.988v-5.599h20.988Zm31.481-11.198v5.599H8.297v-5.599h20.987Zm-503.875 0v5.599h-20.988v-5.599h20.988Zm125.926 0v5.599h-20.987v-5.599h20.987Zm126.012 0v5.599h-20.988v-5.599h20.988Zm314.986 0v5.599H71.345v-5.599h20.988Zm62.963 0v5.599h-20.988v-5.599h20.988Zm-314.986 0v5.599h-20.988v-5.599h20.988Zm-251.938 0v5.599h-20.987v-5.599h20.987Zm629.887 0v5.599h-20.988v-5.599h20.988Zm-314.901 0v5.599h-20.987v-5.599h20.987Zm62.963 0v5.599h-20.987v-5.599h20.987Zm-251.937 0v5.599h-20.988v-5.599h20.988Zm-31.482-11.198v5.599h-20.987v-5.599h20.987Zm-188.974 0v5.599h-20.988v-5.599h20.988Zm692.849 0v5.599H165.79v-5.599h20.987Zm-440.912 0v5.599h-20.987v-5.599h20.987Zm62.963 0v5.599h-20.987v-5.599h20.987Zm252.023 0v5.599H39.864v-5.599h20.987Zm62.963 0v5.599h-20.987v-5.599h20.987Zm-126.011 0v5.599h-20.988v-5.599h20.988Zm-440.912 0v5.599h-20.988v-5.599h20.988Zm314.986 0v5.599h-20.988v-5.599h20.988Zm62.963 0v5.599h-20.988v-5.599h20.988Zm-314.986 0v5.599h-20.988v-5.599h20.988Zm94.53-11.198v5.599h-20.988v-5.599h20.988Zm-126.012 0v5.599h-20.987v-5.599h20.987Zm251.938 0v5.599h-20.988v-5.599h20.988Zm-62.963 0v5.599h-20.988v-5.599h20.988Zm377.949 0v5.599h-20.988v-5.599h20.988Zm-629.887 0v5.599h-20.988v-5.599h20.988Zm440.912 0v5.599h-20.987v-5.599h20.987Zm-62.963 0v5.599h-20.987v-5.599h20.987Zm188.975 0v5.599H71.345v-5.599h20.988Zm-440.998 0v5.599h-20.987v-5.599h20.987Zm566.924 0v5.599h-20.988v-5.599h20.988Zm-188.975 0v5.599H8.297v-5.599h20.987Zm-283.419-11.198v5.599h-20.987v-5.599h20.987Zm-126.011 0v5.599h-20.988v-5.599h20.988Zm-62.963 0v5.599h-20.988v-5.599h20.988Zm629.886 0v5.599H165.79v-5.599h20.987Zm-62.963 0v5.599h-20.987v-5.599h20.987Zm-629.886 0v5.599h-20.988v-5.599h20.988Zm314.9 0v5.599h-20.987v-5.599h20.987Zm252.023 0v5.599H39.864v-5.599h20.987Zm-377.949 0v5.599h-20.987v-5.599h20.987Zm314.901 0v5.599h-20.988v-5.599h20.988Zm-62.963 0v5.599h-20.988v-5.599h20.988Zm-62.963 0v5.599h-20.988v-5.599h20.988Zm157.407-11.198v5.599H8.297v-5.599h20.987Zm-125.926 0v5.599h-20.987v-5.599h20.987Zm-126.011 0v5.599h-20.988v-5.599h20.988Zm440.912 0v5.599h-20.988v-5.599h20.988Zm-125.926 0v5.599H71.345v-5.599h20.988Zm-252.023 0v5.599h-20.988v-5.599h20.988Zm-314.901 0v5.599h-20.988v-5.599h20.988Zm440.912 0v5.599h-20.987v-5.599h20.987Zm-377.949 0v5.599h-20.987v-5.599h20.987Zm126.012 0v5.599h-20.988v-5.599h20.988Zm440.912 0v5.599h-20.988v-5.599h20.988Zm-503.961 0v5.599h-20.987v-5.599h20.987Zm-94.444-11.198v5.599h-20.988v-5.599h20.988Zm377.949 0v5.599h-20.988v-5.599h20.988Zm-314.986 0v5.599h-20.988v-5.599h20.988Zm377.949 0v5.599h-20.988v-5.599h20.988Zm63.048 0v5.599H39.864v-5.599h20.987Zm-188.974 0v5.599h-20.988v-5.599h20.988Zm314.9 0v5.599H165.79v-5.599h20.987Zm-503.875 0v5.599h-20.987v-5.599h20.987Zm125.926 0v5.599h-20.987v-5.599h20.987Zm-62.963 0v5.599h-20.987v-5.599h20.987Zm-251.937 0v5.599h-20.988v-5.599h20.988Zm629.886 0v5.599h-20.987v-5.599h20.987Zm-346.467-11.198v5.599h-20.988v-5.599h20.988Zm440.912 0v5.599h-20.988v-5.599h20.988Zm-377.949 0v5.599h-20.988v-5.599h20.988Zm-125.926 0v5.599h-20.988v-5.599h20.988Zm-63.049 0v5.599h-20.987v-5.599h20.987Zm503.961 0v5.599h-20.988v-5.599h20.988Zm-629.887 0v5.599h-20.988v-5.599h20.988Zm503.875 0v5.599H8.297v-5.599h20.987Zm-62.963 0v5.599h-20.987v-5.599h20.987Zm126.012 0v5.599H71.345v-5.599h20.988Zm-503.961 0v5.599h-20.987v-5.599h20.987Zm314.986 0v5.599h-20.987v-5.599h20.987Zm283.419-11.198v5.624H165.79v-5.624h20.987Zm-314.9 0v5.624h-20.988v-5.624h20.988Zm-126.012 0v5.624h-20.987v-5.624h20.987Zm251.938 0v5.624h-20.988v-5.624h20.988Zm-503.875 0v5.624h-20.988v-5.624h20.988Zm440.912 0v5.624h-20.988v-5.624h20.988Zm-314.986 0v5.624h-20.988v-5.624h20.988Zm503.96 0v5.624h-20.987v-5.624h20.987Zm-440.912 0v5.624h-20.987v-5.624h20.987Zm125.926 0v5.624h-20.987v-5.624h20.987Zm252.023 0v5.624H39.864v-5.624h20.987Zm-503.96 0v5.624h-20.988v-5.624h20.988Zm220.456-11.173v5.599h-20.988v-5.599h20.988Zm377.949 0v5.599h-20.988v-5.599h20.988Zm-503.961 0v5.599h-20.987v-5.599h20.987Zm377.949 0v5.599H8.297v-5.599h20.987Zm-503.875 0v5.599h-20.988v-5.599h20.988Zm692.85 0v5.599h-20.988v-5.599h20.988Zm-629.887 0v5.599h-20.987v-5.599h20.987Zm251.938 0v5.599h-20.988v-5.599h20.988Zm-125.926 0v5.599h-20.988v-5.599h20.988Zm251.937 0v5.599h-20.987v-5.599h20.987Zm-62.963 0v5.599h-20.987v-5.599h20.987Zm188.975 0v5.599H71.345v-5.599h20.988Zm-409.431-11.198v5.599h-20.987v-5.599h20.987Zm62.963 0v5.599h-20.987v-5.599h20.987Zm-188.974 0v5.599h-20.988v-5.599h20.988Zm377.949 0v5.599h-20.988v-5.599h20.988Zm-62.963 0v5.599h-20.988v-5.599h20.988Zm251.937 0v5.599h-20.987v-5.599h20.987Zm-314.986 0v5.599h-20.987v-5.599h20.987Zm252.023 0v5.599H39.864v-5.599h20.987Zm125.926 0v5.599H165.79v-5.599h20.987Zm-692.849 0v5.599h-20.988v-5.599h20.988Zm503.875 0v5.599h-20.988v-5.599h20.988Zm-377.949 0v5.599h-20.988v-5.599h20.988Zm535.442-11.198v5.599h-20.988v-5.599h20.988Zm-377.949 0v5.599h-20.988v-5.599h20.988Zm188.974 0v5.599h-20.987v-5.599h20.987Zm-126.011 0v5.599h-20.988v-5.599h20.988Zm-314.901 0v5.599h-20.988v-5.599h20.988Zm692.85 0v5.599h-20.988v-5.599h20.988Zm-188.975 0v5.599H8.297v-5.599h20.987Zm-377.949 0v5.599h-20.987v-5.599h20.987Zm-62.963 0v5.599h-20.987v-5.599h20.987Zm126.012 0v5.599h-20.988v-5.599h20.988Zm188.974 0v5.599h-20.987v-5.599h20.987Zm188.975 0v5.599H71.345v-5.599h20.988Zm-283.505-11.198v5.599h-20.987v-5.599h20.987Zm-188.974 0v5.599h-20.988v-5.599h20.988Zm440.997 0v5.599H39.864v-5.599h20.987Zm-126.011 0v5.599h-20.988v-5.599h20.988Zm-377.949 0v5.599h-20.988v-5.599h20.988Zm314.986 0v5.599h-20.988v-5.599h20.988Zm-188.975 0v5.599h-20.987v-5.599h20.987Zm440.912 0v5.599h-20.987v-5.599h20.987Zm-126.011 0v5.599h-20.988v-5.599h20.988Zm-251.938 0v5.599h-20.987v-5.599h20.987Zm440.912 0v5.599H165.79v-5.599h20.987Zm-692.849 0v5.599h-20.988v-5.599h20.988Zm31.481-11.198v5.599h-20.988v-5.599h20.988Zm188.975 0v5.599h-20.988v-5.599h20.988Zm251.937 0v5.599h-20.987v-5.599h20.987Zm62.963 0v5.599H8.297v-5.599h20.987Zm126.012 0v5.599h-20.988v-5.599h20.988Zm-566.924 0v5.599h-20.987v-5.599h20.987Zm503.961 0v5.599H71.345v-5.599h20.988Zm-188.975 0v5.599h-20.987v-5.599h20.987Zm-252.023 0v5.599h-20.987v-5.599h20.987Zm188.975 0v5.599h-20.988v-5.599h20.988Zm-62.963 0v5.599h-20.988v-5.599h20.988Zm440.912 0v5.599h-20.988v-5.599h20.988Zm-724.331-11.198v5.599h-20.988v-5.599h20.988Zm188.974 0v5.599h-20.987v-5.599h20.987Zm440.912 0v5.599h-20.987v-5.599h20.987Zm62.963 0v5.599H165.79v-5.599h20.987Zm-188.974 0v5.599h-20.988v-5.599h20.988Zm-188.975 0v5.599h-20.987v-5.599h20.987Zm-62.963 0v5.599h-20.987v-5.599h20.987Zm126.012 0v5.599h-20.988v-5.599h20.988Zm62.963 0v5.599h-20.988v-5.599h20.988Zm126.011 0v5.599H39.864v-5.599h20.987Zm-440.997 0v5.599h-20.988v-5.599h20.988Zm-62.963 0v5.599h-20.988v-5.599h20.988Zm535.442-11.198v5.599H71.345v-5.599h20.988Zm-314.986 0v5.599h-20.988v-5.599h20.988Zm126.011 0v5.599h-20.987v-5.599h20.987Zm-188.974 0v5.599h-20.988v-5.599h20.988Zm125.926 0v5.599h-20.988v-5.599h20.988Zm126.011 0v5.599h-20.987v-5.599h20.987Zm251.938 0v5.599h-20.988v-5.599h20.988Zm-692.85 0v5.599h-20.988v-5.599h20.988Zm629.887 0v5.599h-20.988v-5.599h20.988Zm-566.924 0v5.599h-20.987v-5.599h20.987Zm440.912 0v5.599H8.297v-5.599h20.987Zm-377.949 0v5.599h-20.987v-5.599h20.987Zm283.505-11.198v5.599h-20.988v-5.599h20.988Zm-188.975 0v5.599h-20.987v-5.599h20.987Zm126.012 0v5.599h-20.988v-5.599h20.988Zm251.937 0v5.599h-20.987v-5.599h20.987Zm-314.986 0v5.599h-20.987v-5.599h20.987Zm-251.937 0v5.599h-20.988v-5.599h20.988Zm503.96 0v5.599H39.864v-5.599h20.987Zm-566.923 0v5.599h-20.988v-5.599h20.988Zm503.875 0v5.599h-20.988v-5.599h20.988Zm-314.901 0v5.599h-20.987v-5.599h20.987Zm503.875 0v5.599H165.79v-5.599h20.987Zm-566.923 0v5.599h-20.988v-5.599h20.988Zm220.456-11.198v5.599h-20.988v-5.599h20.988Zm-188.975 0v5.599h-20.987v-5.599h20.987Zm-62.963 0v5.599h-20.987v-5.599h20.987Zm440.912 0v5.599H8.297v-5.599h20.987Zm126.012 0v5.599h-20.988v-5.599h20.988Zm-629.887 0v5.599h-20.988v-5.599h20.988Zm692.85 0v5.599h-20.988v-5.599h20.988Zm-251.938 0v5.599h-20.987v-5.599h20.987Zm-62.963 0v5.599h-20.987v-5.599h20.987Zm-188.974 0v5.599h-20.988v-5.599h20.988Zm62.963 0v5.599h-20.988v-5.599h20.988Zm314.986 0v5.599H71.345v-5.599h20.988Zm-409.431-11.198v5.599h-20.987v-5.599h20.987Zm314.901 0v5.599h-20.988v-5.599h20.988Zm188.974 0v5.599H165.79v-5.599h20.987Zm-692.849 0v5.599h-20.988v-5.599h20.988Zm566.923 0v5.599H39.864v-5.599h20.987Zm62.963 0v5.599h-20.987v-5.599h20.987Zm-314.986 0v5.599h-20.987v-5.599h20.987Zm126.012 0v5.599h-20.988v-5.599h20.988Zm-377.949 0v5.599h-20.988v-5.599h20.988Zm188.974 0v5.599h-20.987v-5.599h20.987Zm126.012 0v5.599h-20.988v-5.599h20.988Zm-252.023 0v5.599h-20.988v-5.599h20.988Zm220.456-11.198v5.599h-20.988v-5.599h20.988Zm377.949 0v5.599h-20.988v-5.599h20.988Zm-125.926 0v5.599H71.345v-5.599h20.988Zm62.963 0v5.599h-20.988v-5.599h20.988Zm-566.924 0v5.599h-20.987v-5.599h20.987Zm62.963 0v5.599h-20.987v-5.599h20.987Zm-125.926 0v5.599h-20.988v-5.599h20.988Zm377.949 0v5.599h-20.987v-5.599h20.987Zm62.963 0v5.599h-20.987v-5.599h20.987Zm62.963 0v5.599H8.297v-5.599h20.987Zm-251.937 0v5.599h-20.988v-5.599h20.988Zm-62.963 0v5.599h-20.988v-5.599h20.988Zm409.43-11.198v5.599h-20.987v-5.599h20.987Zm-566.923 0v5.599h-20.988v-5.599h20.988Zm503.96 0v5.599H39.864v-5.599h20.987Zm125.926 0v5.599H165.79v-5.599h20.987Zm-566.923 0v5.599h-20.988v-5.599h20.988Zm-125.926 0v5.599h-20.988v-5.599h20.988Zm188.974 0v5.599h-20.987v-5.599h20.987Zm188.975 0v5.599h-20.988v-5.599h20.988Zm62.963 0v5.599h-20.988v-5.599h20.988Zm62.963 0v5.599h-20.988v-5.599h20.988Zm-188.975 0v5.599h-20.987v-5.599h20.987Zm-62.963 0v5.599h-20.987v-5.599h20.987Zm-31.481-11.198v5.599h-20.988v-5.599h20.988Zm62.963 0v5.599h-20.988v-5.599h20.988Zm251.937 0v5.599H8.297v-5.599h20.987Zm-188.974 0v5.599h-20.988v-5.599h20.988Zm-188.975 0v5.599h-20.987v-5.599h20.987Zm566.924 0v5.599h-20.988v-5.599h20.988Zm-62.963 0v5.599h-20.988v-5.599h20.988Zm-566.924 0v5.599h-20.987v-5.599h20.987Zm-62.963 0v5.599h-20.988v-5.599h20.988Zm566.924 0v5.599H71.345v-5.599h20.988Zm-188.975 0v5.599h-20.987v-5.599h20.987Zm62.963 0v5.599h-20.987v-5.599h20.987ZM123.814 60.98v5.599h-20.987V60.98h20.987Zm-629.886 0v5.599h-20.988V60.98h20.988Zm566.923 0v5.599H39.864V60.98h20.987Zm-314.986 0v5.599h-20.987V60.98h20.987Zm-188.974 0v5.599h-20.988V60.98h20.988Zm314.986 0v5.599h-20.988V60.98h20.988Zm314.9 0v5.599H165.79V60.98h20.987Zm-377.949 0v5.599h-20.987V60.98h20.987Zm126.012 0v5.599h-20.988V60.98h20.988Zm62.963 0v5.599h-20.988V60.98h20.988Zm-314.901 0v5.599h-20.987V60.98h20.987Zm-63.048 0v5.599h-20.988V60.98h20.988Zm598.405-11.198v5.599h-20.988v-5.599h20.988Zm-251.938 0v5.599h-20.987v-5.599h20.987Zm-188.974 0v5.599h-20.988v-5.599h20.988Zm-188.975 0v5.599h-20.987v-5.599h20.987Zm566.924 0v5.599h-20.988v-5.599h20.988Zm-126.012 0v5.599H8.297v-5.599h20.987Zm-188.974 0v5.599h-20.988v-5.599h20.988Zm252.023 0v5.599H71.345v-5.599h20.988Zm-566.924 0v5.599h-20.988v-5.599h20.988Zm188.975 0v5.599h-20.988v-5.599h20.988Zm-63.049 0v5.599h-20.987v-5.599h20.987Zm252.023 0v5.599h-20.987v-5.599h20.987ZM60.851 38.584v5.599H39.864v-5.599h20.987Zm-314.986 0v5.599h-20.987v-5.599h20.987Zm-126.011 0v5.599h-20.988v-5.599h20.988Zm-62.963 0v5.599h-20.988v-5.599h20.988Zm126.011 0v5.599h-20.987v-5.599h20.987Zm125.926 0v5.599h-20.987v-5.599h20.987Zm63.049 0v5.599h-20.988v-5.599h20.988Zm62.963 0v5.599h-20.988v-5.599h20.988Zm251.937 0v5.599H165.79v-5.599h20.987Zm-692.849 0v5.599h-20.988v-5.599h20.988Zm503.875 0v5.599h-20.988v-5.599h20.988Zm126.011 0v5.599h-20.987v-5.599h20.987Zm-598.405-11.198v5.599h-20.988v-5.599h20.988Zm125.926 0v5.599h-20.987v-5.599h20.987Zm126.012 0v5.599h-20.988v-5.599h20.988Zm314.986 0v5.599H71.345v-5.599h20.988Zm62.963 0v5.599h-20.988v-5.599h20.988Zm-314.986 0v5.599h-20.988v-5.599h20.988Zm-251.938 0v5.599h-20.987v-5.599h20.987Zm629.887 0v5.599h-20.988v-5.599h20.988Zm-314.901 0v5.599h-20.987v-5.599h20.987Zm62.963 0v5.599h-20.987v-5.599h20.987Zm-251.937 0v5.599h-20.988v-5.599h20.988Zm314.9 0v5.599H8.297v-5.599h20.987Zm-535.356-11.198v5.599h-20.988v-5.599h20.988Zm692.849 0v5.599H165.79v-5.599h20.987Zm-440.912 0v5.599h-20.987v-5.599h20.987Zm62.963 0v5.599h-20.987v-5.599h20.987Zm252.023 0v5.599H39.864v-5.599h20.987Zm-377.949 0v5.599h-20.987v-5.599h20.987Zm440.912 0v5.599h-20.987v-5.599h20.987Zm-126.011 0v5.599h-20.988v-5.599h20.988Zm-440.912 0v5.599h-20.988v-5.599h20.988Zm314.986 0v5.599h-20.988v-5.599h20.988Zm62.963 0v5.599h-20.988v-5.599h20.988Zm-314.986 0v5.599h-20.988v-5.599h20.988ZM-411.628 4.99v5.599h-20.987V4.99h20.987Zm251.938 0v5.599h-20.988V4.99h20.988Zm-62.963 0v5.599h-20.988V4.99h20.988Zm377.949 0v5.599h-20.988V4.99h20.988Zm-629.887 0v5.599h-20.988V4.99h20.988Zm440.912 0v5.599h-20.987V4.99h20.987Zm-62.963 0v5.599h-20.987V4.99h20.987Zm188.975 0v5.599H71.345V4.99h20.988Zm-440.998 0v5.599h-20.987V4.99h20.987Zm566.924 0v5.599h-20.988V4.99h20.988Zm-188.975 0v5.599H8.297V4.99h20.987Zm-314.9 0v5.599h-20.988V4.99h20.988Zm-94.53-11.198v5.599h-20.988v-5.599h20.988Zm-62.963 0v5.599h-20.988v-5.599h20.988Zm629.886 0v5.599H165.79v-5.599h20.987Zm-62.963 0v5.599h-20.987v-5.599h20.987Zm-629.886 0v5.599h-20.988v-5.599h20.988Zm251.937 0v5.599h-20.987v-5.599h20.987Zm314.986 0v5.599H39.864v-5.599h20.987Zm-377.949 0v5.599h-20.987v-5.599h20.987Zm314.901 0v5.599h-20.988v-5.599h20.988Zm-62.963 0v5.599h-20.988v-5.599h20.988Zm-62.963 0v5.599h-20.988v-5.599h20.988Zm-63.049 0v5.599h-20.987v-5.599h20.987Zm94.53-11.198v5.599h-20.987v-5.599h20.987Zm-126.011 0v5.599h-20.988v-5.599h20.988Zm440.912 0v5.599h-20.988v-5.599h20.988Zm-125.926 0v5.599H71.345v-5.599h20.988Zm-252.023 0v5.599h-20.988v-5.599h20.988Zm-314.901 0v5.599h-20.988v-5.599h20.988Zm440.912 0v5.599h-20.987v-5.599h20.987Zm-377.949 0v5.599h-20.987v-5.599h20.987Zm126.012 0v5.599h-20.988v-5.599h20.988Zm440.912 0v5.599h-20.988v-5.599h20.988Zm-503.961 0v5.599h-20.987v-5.599h20.987Zm377.949 0v5.599H8.297v-5.599h20.987ZM-65.16-28.604v5.599h-20.988v-5.599h20.988Zm-314.986 0v5.599h-20.988v-5.599h20.988Zm377.949 0v5.599h-20.988v-5.599h20.988Zm63.048 0v5.599H39.864v-5.599h20.987Zm-188.974 0v5.599h-20.988v-5.599h20.988Zm-314.986 0v5.599h-20.988v-5.599h20.988Zm629.886 0v5.599H165.79v-5.599h20.987Zm-503.875 0v5.599h-20.987v-5.599h20.987Zm125.926 0v5.599h-20.987v-5.599h20.987Zm-62.963 0v5.599h-20.987v-5.599h20.987Zm-251.937 0v5.599h-20.988v-5.599h20.988Zm629.886 0v5.599h-20.987v-5.599h20.987Zm-598.405-11.198v5.599h-20.988v-5.599h20.988Zm251.938 0v5.599h-20.988v-5.599h20.988Zm440.912 0v5.599h-20.988v-5.599h20.988Zm-377.949 0v5.599h-20.988v-5.599h20.988Zm-125.926 0v5.599h-20.988v-5.599h20.988Zm-63.049 0v5.599h-20.987v-5.599h20.987Zm503.961 0v5.599h-20.988v-5.599h20.988Zm-126.012 0v5.599H8.297v-5.599h20.987Zm-62.963 0v5.599h-20.987v-5.599h20.987Zm126.012 0v5.599H71.345v-5.599h20.988Zm-503.961 0v5.599h-20.987v-5.599h20.987Zm314.986 0v5.599h-20.987v-5.599h20.987ZM-443.109-51v5.599h-20.988V-51h20.988Zm188.974 0v5.599h-20.987V-51h20.987Zm377.949 0v5.599h-20.987V-51h20.987Zm-629.886 0v5.599h-20.988V-51h20.988Zm692.849 0v5.599H165.79V-51h20.987Zm-503.875 0v5.599h-20.987V-51h20.987Zm188.975 0v5.599h-20.988V-51h20.988Zm188.974 0v5.599H39.864V-51h20.987ZM-65.16-51v5.599h-20.988V-51h20.988Zm62.963 0v5.599h-20.988V-51h20.988Zm-377.949 0v5.599h-20.988V-51h20.988Zm188.974 0v5.599h-20.987V-51h20.987Z" mask="url(#patternb)" opacity=".88084" style="mix-blend-mode:multiply"/></g></svg>
