<svg xmlns="http://www.w3.org/2000/svg" xmlns:xlink="http://www.w3.org/1999/xlink" width="304" height="43"><defs><path id="a" d="M0 0h89v43H0z"/><path id="c" d="M0 0h100v43H0z"/></defs><g fill="none" fill-rule="evenodd"><mask id="b" fill="#fff"><use xlink:href="#a"/></mask><path fill="#FFFFFE" d="M2.635 34.312c1.889 2 4.604 3.53 7.497 3.53 3.66 0 6.021-2.471 6.021-6.18 0-8.768-15.23-8.18-15.23-20.303C.923 5.06 5.233 0 12.729 0c3.07 0 6.199.883 8.737 2.648L19.46 7.651c-1.535-1.295-4.427-2.413-6.67-2.413-4.133 0-6.258 2.825-6.258 6.12 0 8.593 15.29 7.652 15.29 20.01 0 6.475-4.073 11.654-11.512 11.654A15.765 15.765 0 01-.02 39.137l2.656-4.825m38.903 3.413c6.493 0 10.92-6.415 10.92-16.479 0-9.828-4.427-15.89-10.92-15.89-6.494 0-10.862 6.062-10.862 15.89 0 10.123 4.368 16.479 10.862 16.479zm0-37.725c9.917 0 16.706 8.534 16.706 21.246 0 12.948-6.789 21.776-16.706 21.776S24.95 34.252 24.95 21.246C24.95 8.534 31.62 0 41.538 0zm21.664.706h5.55v28.309c0 5.944 2.892 8.828 7.32 8.828 4.486 0 7.379-2.884 7.379-8.887V.706H89v28.426c0 8.71-5.136 13.89-12.87 13.89-7.792 0-12.928-5.18-12.928-13.89V.706" mask="url(#b)"/><path fill="#FFFFFE" d="M103.717 5.05H93V0h27v5.05h-10.776V42h-5.507V5.05M123 0h5.703v18.535h15.654V0H150v42h-5.643V23.525h-15.654V42H123V0m34 0h18.323v5.05H162.3v13.247h10.543v5.05H162.3V36.95H176V42h-19V0"/><g transform="translate(177)"><mask id="d" fill="#fff"><use xlink:href="#c"/></mask><path fill="#FFFFFE" d="M10.76 24.718L0 .706h6.115L11.7 14.301c.941 2.413 1.765 5.18 1.765 5.18h.117s.882-2.767 1.764-5.18L20.931.706h6.057L16.287 24.718v17.597H10.76V24.718M89.416 0c3.47 0 7.291 1.06 9.996 3.413L97.06 8.24c-1.705-1.647-4.821-2.942-7.526-2.942-7.82 0-12.289 6.945-12.289 15.89 0 9.064 4.587 16.597 12.113 16.597 3.233 0 6.115-1.354 8.466-3.237L100 39.314c-2.587 2.236-6.291 3.708-10.936 3.708-10.996 0-17.58-9.417-17.58-21.6C71.483 9.064 78.185 0 89.415 0" mask="url(#d)"/></g><path fill="#FFFFFE" d="M291.03 30.058c4.606 0 7.273-4.64 7.273-11.088 0-6.509-2.667-11.028-7.273-11.028-4.666 0-7.333 4.52-7.333 11.028 0 6.448 2.667 11.088 7.333 11.088zm0-27.058C298.85 3 304 9.75 304 18.97S298.849 35 291.03 35C283.212 35 278 28.25 278 18.97S283.212 3 291.03 3z"/><path d="M219.81 12.151c0 1.829.721 3.749 2.163 5.76a19.374 19.374 0 002.616-1.489 7.64 7.64 0 002.104-2.096c.55-.823.826-1.822.826-2.998 0-1.227-.315-2.213-.944-2.958-.63-.744-1.508-1.116-2.635-1.116-1.233 0-2.229.444-2.99 1.332-.76.888-1.14 2.076-1.14 3.565zm-5.27 14.654c0 1.176.216 2.195.649 3.057a4.468 4.468 0 001.927 1.978c.852.458 1.855.686 3.009.686 1.023 0 1.92-.177 2.694-.53a7.953 7.953 0 002.065-1.351 13.355 13.355 0 001.573-1.685l-4.523-5.76a132.17 132.17 0 00-1.18-1.567 65.88 65.88 0 01-1.219-1.645c-1.81.836-3.094 1.815-3.854 2.938-.761 1.124-1.141 2.417-1.141 3.88zm15.693 7.014l-2.99-3.88c-1.258 1.36-2.53 2.41-3.815 3.155-1.284.744-2.792 1.117-4.522 1.117-.97 0-1.928-.15-2.871-.45a7.979 7.979 0 01-2.557-1.353 6.597 6.597 0 01-1.81-2.213c-.445-.875-.668-1.887-.668-3.037 0-1.646.616-3.148 1.849-4.506 1.232-1.358 3.225-2.599 5.978-3.722-.865-1.332-1.489-2.475-1.868-3.429-.38-.953-.57-1.887-.57-2.8 0-1.307.3-2.463.904-3.469.603-1.005 1.455-1.795 2.556-2.37 1.102-.574 2.373-.862 3.816-.862 1.101 0 2.156.21 3.166.627 1.009.418 1.835 1.025 2.478 1.822.642.797.963 1.796.963 2.997 0 .94-.216 1.79-.649 2.547a7.204 7.204 0 01-1.73 2.018 13.44 13.44 0 01-2.439 1.567 30.822 30.822 0 01-2.773 1.234l6.136 7.993 4.012-5.76c.445-.626.7-1.09.767-1.39.065-.3 0-.503-.197-.608-.197-.104-.452-.156-.767-.156h-1.455v-1.333h8.456v1.333h-1.455c-.604 0-1.096.039-1.475.117a2.19 2.19 0 00-1.043.549c-.314.287-.721.757-1.219 1.41l-4.877 6.857 1.849 2.39c.524.653 1.015 1.143 1.475 1.47a3.82 3.82 0 001.573.646c.59.105 1.291.157 2.104.157h1.652v1.332h-7.984zM282.86 42H301v-4.8h-18.139z" fill="#8C6F2F"/></g></svg>