<svg class="testimonial__pattern" xmlns="http://www.w3.org/2000/svg" xmlns:xlink="http://www.w3.org/1999/xlink" width="230" height="607"><defs><path id="patterna" d="M0 0h230v607H0z"/></defs><g fill="none" fill-rule="evenodd"><mask id="patternb" fill="#fff"><use xlink:href="#patterna"/></mask><path fill="#8C6F2F" d="M-128.123 1023.96v5.6h-20.988v-5.6h20.988zm-377.949 0v5.6h-20.988v-5.6h20.988zm440.912 0v5.6h-20.988v-5.6h20.988zm-314.986 0v5.6h-20.988v-5.6h20.988zm566.923 0v5.6H165.79v-5.6h20.987zm-62.963 0v5.6h-20.987v-5.6h20.987zm-440.912 0v5.6h-20.987v-5.6h20.987zm125.926 0v5.6h-20.987v-5.6h20.987zm252.023 0v5.6H39.864v-5.6h20.987zm-503.96 0v5.6h-20.988v-5.6h20.988zm188.974 0v5.6h-20.987v-5.6h20.987zm251.938 0v5.6h-20.988v-5.6h20.988zm-220.456-11.2v5.6h-20.988v-5.6h20.988zm377.949 0v5.6h-20.988v-5.6h20.988zm-503.961 0v5.6h-20.987v-5.6h20.987zm377.949 0v5.6H8.297v-5.6h20.987zm-503.875 0v5.6h-20.988v-5.6h20.988zm692.85 0v5.6h-20.988v-5.6h20.988zm-629.887 0v5.6h-20.987v-5.6h20.987zm251.938 0v5.6h-20.988v-5.6h20.988zm-125.926 0v5.6h-20.988v-5.6h20.988zm251.937 0v5.6h-20.987v-5.6h20.987zm-62.963 0v5.6h-20.987v-5.6h20.987zm188.975 0v5.6H71.345v-5.6h20.988zm-94.53-11.2v5.6h-20.988v-5.6h20.988zm-377.949 0v5.6h-20.988v-5.6h20.988zm63.048 0v5.6h-20.987v-5.6h20.987zm62.963 0v5.6h-20.987v-5.6h20.987zm-188.974 0v5.6h-20.988v-5.6h20.988zm377.949 0v5.6h-20.988v-5.6h20.988zm-62.963 0v5.6h-20.988v-5.6h20.988zm251.937 0v5.6h-20.987v-5.6h20.987zm-314.986 0v5.6h-20.987v-5.6h20.987zm252.023 0v5.6H39.864v-5.6h20.987zm125.926 0v5.6H165.79v-5.6h20.987zm-692.849 0v5.6h-20.988v-5.6h20.988zm31.481-11.2v5.6h-20.988v-5.6h20.988zm692.85 0v5.6h-20.988v-5.6h20.988zm-62.963 0v5.6h-20.988v-5.6h20.988zm-377.949 0v5.6h-20.988v-5.6h20.988zm188.974 0v5.6h-20.987v-5.6h20.987zm-126.011 0v5.6h-20.988v-5.6h20.988zm188.974 0v5.6H8.297v-5.6h20.987zm-377.949 0v5.6h-20.987v-5.6h20.987zm-62.963 0v5.6h-20.987v-5.6h20.987zm126.012 0v5.6h-20.988v-5.6h20.988zm188.974 0v5.6h-20.987v-5.6h20.987zm188.975 0v5.6H71.345v-5.6h20.988zm94.444-11.19v5.59H165.79v-5.59h20.987zm-692.849 0v5.59h-20.988v-5.59h20.988zm314.9 0v5.59h-20.987v-5.59h20.987zm-188.974 0v5.59h-20.988v-5.59h20.988zm440.997 0v5.59H39.864v-5.59h20.987zm-126.011 0v5.59h-20.988v-5.59h20.988zm-377.949 0v5.59h-20.988v-5.59h20.988zm314.986 0v5.59h-20.988v-5.59h20.988zm-188.975 0v5.59h-20.987v-5.59h20.987zm440.912 0v5.59h-20.987v-5.59h20.987zm-126.011 0v5.59h-20.988v-5.59h20.988zm-251.938 0v5.59h-20.987v-5.59h20.987zm31.482-11.2v5.6h-20.988v-5.6h20.988zm440.912 0v5.6h-20.988v-5.6h20.988zm-692.85 0v5.6h-20.988v-5.6h20.988zm188.975 0v5.6h-20.988v-5.6h20.988zm251.937 0v5.6h-20.987v-5.6h20.987zm62.963 0v5.6H8.297v-5.6h20.987zm126.012 0v5.6h-20.988v-5.6h20.988zm-566.924 0v5.6h-20.987v-5.6h20.987zm503.961 0v5.6H71.345v-5.6h20.988zm-188.975 0v5.6h-20.987v-5.6h20.987zm-252.023 0v5.6h-20.987v-5.6h20.987zm188.975 0v5.6h-20.988v-5.6h20.988zm157.493-11.2v5.6h-20.988v-5.6h20.988zm-188.975 0v5.6h-20.987v-5.6h20.987zm-314.9 0v5.6h-20.988v-5.6h20.988zm188.974 0v5.6h-20.987v-5.6h20.987zm440.912 0v5.6h-20.987v-5.6h20.987zm62.963 0v5.6H165.79v-5.6h20.987zm-440.912 0v5.6h-20.987v-5.6h20.987zm126.012 0v5.6h-20.988v-5.6h20.988zm62.963 0v5.6h-20.988v-5.6h20.988zm126.011 0v5.6H39.864v-5.6h20.987zm-440.997 0v5.6h-20.988v-5.6h20.988zm-62.963 0v5.6h-20.988v-5.6h20.988zm472.393-11.199v5.599H8.297v-5.599h20.987zm-377.949 0v5.599h-20.987v-5.599h20.987zm440.998 0v5.599H71.345v-5.599h20.988zm-314.986 0v5.599h-20.988v-5.599h20.988zm126.011 0v5.599h-20.987v-5.599h20.987zm-188.974 0v5.599h-20.988v-5.599h20.988zm125.926 0v5.599h-20.988v-5.599h20.988zm126.011 0v5.599h-20.987v-5.599h20.987zm251.938 0v5.599h-20.988v-5.599h20.988zm-692.85 0v5.599h-20.988v-5.599h20.988zm629.887 0v5.599h-20.988v-5.599h20.988zm-566.924 0v5.599h-20.987v-5.599h20.987zm220.456-11.198v5.599h-20.987v-5.599h20.987zm-251.937 0v5.599h-20.988v-5.599h20.988zm377.949 0v5.599h-20.988v-5.599h20.988zm-188.975 0v5.599h-20.987v-5.599h20.987zm126.012 0v5.599h-20.988v-5.599h20.988zm251.937 0v5.599h-20.987v-5.599h20.987zm62.963 0v5.599H165.79v-5.599h20.987zm-566.923 0v5.599h-20.988v-5.599h20.988zm440.997 0v5.599H39.864v-5.599h20.987zm-566.923 0v5.599h-20.988v-5.599h20.988zm503.875 0v5.599h-20.988v-5.599h20.988zm-314.901 0v5.599h-20.987v-5.599h20.987zm472.394-11.198v5.599h-20.988v-5.599h20.988zm-629.887 0v5.599h-20.988v-5.599h20.988zm314.901 0v5.599h-20.988v-5.599h20.988zm-188.975 0v5.599h-20.987v-5.599h20.987zm-62.963 0v5.599h-20.987v-5.599h20.987zm440.912 0v5.599H8.297v-5.599h20.987zm188.975 0v5.599h-20.988v-5.599h20.988zm-251.938 0v5.599h-20.987v-5.599h20.987zm-62.963 0v5.599h-20.987v-5.599h20.987zm-188.974 0v5.599h-20.988v-5.599h20.988zm62.963 0v5.599h-20.988v-5.599h20.988zm314.986 0v5.599H71.345v-5.599h20.988zm-220.456-11.198v5.599h-20.988v-5.599h20.988zm-252.023 0v5.599h-20.988v-5.599h20.988zm63.048 0v5.599h-20.987v-5.599h20.987zm314.901 0v5.599h-20.988v-5.599h20.988zm188.974 0v5.599H165.79v-5.599h20.987zm-692.849 0v5.599h-20.988v-5.599h20.988zm566.923 0v5.599H39.864v-5.599h20.987zm62.963 0v5.599h-20.987v-5.599h20.987zm-314.986 0v5.599h-20.987v-5.599h20.987zm126.012 0v5.599h-20.988v-5.599h20.988zm-377.949 0v5.599h-20.988v-5.599h20.988zm188.974 0v5.599h-20.987v-5.599h20.987zm-31.481-11.198v5.599h-20.988v-5.599h20.988zm-188.975 0v5.599h-20.988v-5.599h20.988zm314.901 0v5.599h-20.988v-5.599h20.988zm377.949 0v5.599h-20.988v-5.599h20.988zm-125.926 0v5.599H71.345v-5.599h20.988zm62.963 0v5.599h-20.988v-5.599h20.988zm-566.924 0v5.599h-20.987v-5.599h20.987zm62.963 0v5.599h-20.987v-5.599h20.987zm252.023 0v5.599h-20.987v-5.599h20.987zm62.963 0v5.599h-20.987v-5.599h20.987zm62.963 0v5.599H8.297v-5.599h20.987zm-251.937 0v5.599h-20.988v-5.599h20.988zm-283.419-11.198v5.599h-20.988v-5.599h20.988zm629.886 0v5.599h-20.987v-5.599h20.987zm-566.923 0v5.599h-20.988v-5.599h20.988zm503.96 0v5.599H39.864v-5.599h20.987zm125.926 0v5.599H165.79v-5.599h20.987zm-566.923 0v5.599h-20.988v-5.599h20.988zm63.048 0v5.599h-20.987v-5.599h20.987zm188.975 0v5.599h-20.988v-5.599h20.988zm62.963 0v5.599h-20.988v-5.599h20.988zm62.963 0v5.599h-20.988v-5.599h20.988zm-188.975 0v5.599h-20.987v-5.599h20.987zm-62.963 0v5.599h-20.987v-5.599h20.987zm157.493-11.198v5.599h-20.987v-5.599h20.987zm62.963 0v5.599h-20.987v-5.599h20.987zm-251.937 0v5.599h-20.988v-5.599h20.988zm62.963 0v5.599h-20.988v-5.599h20.988zm251.937 0v5.599H8.297v-5.599h20.987zm-188.974 0v5.599h-20.988v-5.599h20.988zm-188.975 0v5.599h-20.987v-5.599h20.987zm566.924 0v5.599h-20.988v-5.599h20.988zm-62.963 0v5.599h-20.988v-5.599h20.988zm-566.924 0v5.599h-20.987v-5.599h20.987zm-62.963 0v5.599h-20.988v-5.599h20.988zm566.924 0v5.599H71.345v-5.599h20.988zm-535.442-11.198v5.599h-20.988v-5.599h20.988zm314.986 0v5.599h-20.988v-5.599h20.988zm251.937 0v5.599h-20.987v-5.599h20.987zm-629.886 0v5.599h-20.988v-5.599h20.988zm566.923 0v5.599H39.864v-5.599h20.987zm-314.986 0v5.599h-20.987v-5.599h20.987zm-62.963 0v5.599h-20.987v-5.599h20.987zm-63.048 0v5.599h-20.988v-5.599h20.988zm566.923 0v5.599H165.79v-5.599h20.987zm-377.949 0v5.599h-20.987v-5.599h20.987zm126.012 0v5.599h-20.988v-5.599h20.988zm62.963 0v5.599h-20.988v-5.599h20.988zm157.493-11.198v5.599h-20.988v-5.599h20.988zm-126.012 0v5.599H8.297v-5.599h20.987zm188.975 0v5.599h-20.988v-5.599h20.988zm-251.938 0v5.599h-20.987v-5.599h20.987zm-188.974 0v5.599h-20.988v-5.599h20.988zm-188.975 0v5.599h-20.987v-5.599h20.987zm251.938 0v5.599h-20.988v-5.599h20.988zm252.023 0v5.599H71.345v-5.599h20.988zm-566.924 0v5.599h-20.988v-5.599h20.988zm188.975 0v5.599h-20.988v-5.599h20.988zm-63.049 0v5.599h-20.987v-5.599h20.987zm252.023 0v5.599h-20.987v-5.599h20.987zm94.445-11.198v5.599h-20.988v-5.599h20.988zm126.011 0v5.599h-20.987v-5.599h20.987zm-62.963 0v5.599H39.864v-5.599h20.987zm-314.986 0v5.599h-20.987v-5.599h20.987zm-126.011 0v5.599h-20.988v-5.599h20.988zm-62.963 0v5.599h-20.988v-5.599h20.988zm126.011 0v5.599h-20.987v-5.599h20.987zm125.926 0v5.599h-20.987v-5.599h20.987zm63.049 0v5.599h-20.988v-5.599h20.988zm62.963 0v5.599h-20.988v-5.599h20.988zm251.937 0v5.599H165.79v-5.599h20.987zm-692.849 0v5.599h-20.988v-5.599h20.988zm661.368-11.198v5.599h-20.988v-5.599h20.988zm-126.012 0v5.599H8.297v-5.599h20.987zm-503.875 0v5.599h-20.988v-5.599h20.988zm125.926 0v5.599h-20.987v-5.599h20.987zm126.012 0v5.599h-20.988v-5.599h20.988zm314.986 0v5.599H71.345v-5.599h20.988zm-252.023 0v5.599h-20.988v-5.599h20.988zm-251.938 0v5.599h-20.987v-5.599h20.987zm629.887 0v5.599h-20.988v-5.599h20.988zm-314.901 0v5.599h-20.987v-5.599h20.987zm62.963 0v5.599h-20.987v-5.599h20.987zm-251.937 0v5.599h-20.988v-5.599h20.988zm-94.53-11.198v5.599h-20.988v-5.599h20.988zm63.048 0v5.599h-20.987v-5.599h20.987zm-188.974 0v5.599h-20.988v-5.599h20.988zm692.849 0v5.599H165.79v-5.599h20.987zm-440.912 0v5.599h-20.987v-5.599h20.987zm62.963 0v5.599h-20.987v-5.599h20.987zm252.023 0v5.599H39.864v-5.599h20.987zm62.963 0v5.599h-20.987v-5.599h20.987zm-126.011 0v5.599h-20.988v-5.599h20.988zm-440.912 0v5.599h-20.988v-5.599h20.988zm314.986 0v5.599h-20.988v-5.599h20.988zm62.963 0v5.599h-20.988v-5.599h20.988zm94.444-11.198v5.599H8.297v-5.599h20.987zm-314.9 0v5.599h-20.988v-5.599h20.988zm-126.012 0v5.599h-20.987v-5.599h20.987zm251.938 0v5.599h-20.988v-5.599h20.988zm-62.963 0v5.599h-20.988v-5.599h20.988zm377.949 0v5.599h-20.988v-5.599h20.988zm-629.887 0v5.599h-20.988v-5.599h20.988zm440.912 0v5.599h-20.987v-5.599h20.987zm-62.963 0v5.599h-20.987v-5.599h20.987zm188.975 0v5.599H71.345v-5.599h20.988zm-440.998 0v5.599h-20.987v-5.599h20.987zm566.924 0v5.599h-20.988v-5.599h20.988zm-346.382-11.198v5.599h-20.988v-5.599h20.988zm-126.012 0v5.599h-20.987v-5.599h20.987zm-126.011 0v5.599h-20.988v-5.599h20.988zm-62.963 0v5.599h-20.988v-5.599h20.988zm629.886 0v5.599H165.79v-5.599h20.987zm-62.963 0v5.599h-20.987v-5.599h20.987zm-629.886 0v5.599h-20.988v-5.599h20.988zm314.9 0v5.599h-20.987v-5.599h20.987zm252.023 0v5.599H39.864v-5.599h20.987zm-377.949 0v5.599h-20.987v-5.599h20.987zm314.901 0v5.599h-20.988v-5.599h20.988zm-62.963 0v5.599h-20.988v-5.599h20.988zm-94.53-11.198v5.599h-20.988v-5.599h20.988zm188.974 0v5.599H8.297v-5.599h20.987zm-125.926 0v5.599h-20.987v-5.599h20.987zm-126.011 0v5.599h-20.988v-5.599h20.988zm440.912 0v5.599h-20.988v-5.599h20.988zm-125.926 0v5.599H71.345v-5.599h20.988zm-566.924 0v5.599h-20.988v-5.599h20.988zm440.912 0v5.599h-20.987v-5.599h20.987zm-377.949 0v5.599h-20.987v-5.599h20.987zm126.012 0v5.599h-20.988v-5.599h20.988zm440.912 0v5.599h-20.988v-5.599h20.988zm-503.961 0v5.599h-20.987v-5.599h20.987zm472.479-11.198v5.599h-20.987v-5.599h20.987zm-566.923 0v5.599h-20.988v-5.599h20.988zm377.949 0v5.599h-20.988v-5.599h20.988zm-314.986 0v5.599h-20.988v-5.599h20.988zm377.949 0v5.599h-20.988v-5.599h20.988zm63.048 0v5.599H39.864v-5.599h20.987zm-188.974 0v5.599h-20.988v-5.599h20.988zm314.9 0v5.599H165.79v-5.599h20.987zm-503.875 0v5.599h-20.987v-5.599h20.987zm125.926 0v5.599h-20.987v-5.599h20.987zm-62.963 0v5.599h-20.987v-5.599h20.987zm-251.937 0v5.599h-20.988v-5.599h20.988zm31.481-11.198v5.599h-20.988v-5.599h20.988zm251.938 0v5.599h-20.988v-5.599h20.988zm440.912 0v5.599h-20.988v-5.599h20.988zm-377.949 0v5.599h-20.988v-5.599h20.988zm-125.926 0v5.599h-20.988v-5.599h20.988zm-63.049 0v5.599h-20.987v-5.599h20.987zm503.961 0v5.599h-20.988v-5.599h20.988zm-126.012 0v5.599H8.297v-5.599h20.987zm-62.963 0v5.599h-20.987v-5.599h20.987zm126.012 0v5.599H71.345v-5.599h20.988zm-503.961 0v5.599h-20.987v-5.599h20.987zm314.986 0v5.599h-20.987v-5.599h20.987zm283.419-11.198v5.624H165.79v-5.624h20.987zm-314.9 0v5.624h-20.988v-5.624h20.988zm-126.012 0v5.624h-20.987v-5.624h20.987zm251.938 0v5.624h-20.988v-5.624h20.988zm-503.875 0v5.624h-20.988v-5.624h20.988zm440.912 0v5.624h-20.988v-5.624h20.988zm-314.986 0v5.624h-20.988v-5.624h20.988zm503.96 0v5.624h-20.987v-5.624h20.987zm-440.912 0v5.624h-20.987v-5.624h20.987zm125.926 0v5.624h-20.987v-5.624h20.987zm252.023 0v5.624H39.864v-5.624h20.987zm-503.96 0v5.624h-20.988v-5.624h20.988zm535.442-11.173v5.599H71.345v-5.599h20.988zm-314.986 0v5.599h-20.988v-5.599h20.988zm377.949 0v5.599h-20.988v-5.599h20.988zm-503.961 0v5.599h-20.987v-5.599h20.987zm377.949 0v5.599H8.297v-5.599h20.987zm-503.875 0v5.599h-20.988v-5.599h20.988zm692.85 0v5.599h-20.988v-5.599h20.988zm-629.887 0v5.599h-20.987v-5.599h20.987zm251.938 0v5.599h-20.988v-5.599h20.988zm-125.926 0v5.599h-20.988v-5.599h20.988zm251.937 0v5.599h-20.987v-5.599h20.987zm-62.963 0v5.599h-20.987v-5.599h20.987zm220.456-11.198v5.599h-20.987v-5.599h20.987zm-440.912 0v5.599h-20.987v-5.599h20.987zm62.963 0v5.599h-20.987v-5.599h20.987zm-188.974 0v5.599h-20.988v-5.599h20.988zm377.949 0v5.599h-20.988v-5.599h20.988zm-62.963 0v5.599h-20.988v-5.599h20.988zm-252.023 0v5.599h-20.988v-5.599h20.988zm188.974 0v5.599h-20.987v-5.599h20.987zm252.023 0v5.599H39.864v-5.599h20.987zm125.926 0v5.599H165.79v-5.599h20.987zm-692.849 0v5.599h-20.988v-5.599h20.988zm503.875 0v5.599h-20.988v-5.599h20.988zm220.456-11.198v5.599h-20.988v-5.599h20.988zm-62.963 0v5.599h-20.988v-5.599h20.988zm-377.949 0v5.599h-20.988v-5.599h20.988zm188.974 0v5.599h-20.987v-5.599h20.987zm-126.011 0v5.599h-20.988v-5.599h20.988zm-314.901 0v5.599h-20.988v-5.599h20.988zm503.875 0v5.599H8.297v-5.599h20.987zm-377.949 0v5.599h-20.987v-5.599h20.987zm-62.963 0v5.599h-20.987v-5.599h20.987zm126.012 0v5.599h-20.988v-5.599h20.988zm188.974 0v5.599h-20.987v-5.599h20.987zm188.975 0v5.599H71.345v-5.599h20.988zm-598.405-11.198v5.599h-20.988v-5.599h20.988zm314.9 0v5.599h-20.987v-5.599h20.987zm-188.974 0v5.599h-20.988v-5.599h20.988zm440.997 0v5.599H39.864v-5.599h20.987zm-126.011 0v5.599h-20.988v-5.599h20.988zm-377.949 0v5.599h-20.988v-5.599h20.988zm314.986 0v5.599h-20.988v-5.599h20.988zm-188.975 0v5.599h-20.987v-5.599h20.987zm440.912 0v5.599h-20.987v-5.599h20.987zm-126.011 0v5.599h-20.988v-5.599h20.988zm-251.938 0v5.599h-20.987v-5.599h20.987zm440.912 0v5.599H165.79v-5.599h20.987zm-598.405-11.198v5.599h-20.987v-5.599h20.987zm-62.963 0v5.599h-20.988v-5.599h20.988zm188.975 0v5.599h-20.988v-5.599h20.988zm251.937 0v5.599h-20.987v-5.599h20.987zm62.963 0v5.599H8.297v-5.599h20.987zm126.012 0v5.599h-20.988v-5.599h20.988zm-62.963 0v5.599H71.345v-5.599h20.988zm-188.975 0v5.599h-20.987v-5.599h20.987zm-252.023 0v5.599h-20.987v-5.599h20.987zm188.975 0v5.599h-20.988v-5.599h20.988zm-62.963 0v5.599h-20.988v-5.599h20.988zm440.912 0v5.599h-20.988v-5.599h20.988zm-661.368-11.198v5.599h-20.988v-5.599h20.988zm-62.963 0v5.599h-20.988v-5.599h20.988zm188.974 0v5.599h-20.987v-5.599h20.987zm440.912 0v5.599h-20.987v-5.599h20.987zm62.963 0v5.599H165.79v-5.599h20.987zm-188.974 0v5.599h-20.988v-5.599h20.988zm-188.975 0v5.599h-20.987v-5.599h20.987zm-62.963 0v5.599h-20.987v-5.599h20.987zm126.012 0v5.599h-20.988v-5.599h20.988zm62.963 0v5.599h-20.988v-5.599h20.988zm126.011 0v5.599H39.864v-5.599h20.987zm-440.997 0v5.599h-20.988v-5.599h20.988zm31.481-11.198v5.599h-20.987v-5.599h20.987zm440.998 0v5.599H71.345v-5.599h20.988zm-314.986 0v5.599h-20.988v-5.599h20.988zm126.011 0v5.599h-20.987v-5.599h20.987zm-188.974 0v5.599h-20.988v-5.599h20.988zm125.926 0v5.599h-20.988v-5.599h20.988zm126.011 0v5.599h-20.987v-5.599h20.987zm251.938 0v5.599h-20.988v-5.599h20.988zm-692.85 0v5.599h-20.988v-5.599h20.988zm629.887 0v5.599h-20.988v-5.599h20.988zm-566.924 0v5.599h-20.987v-5.599h20.987zm440.912 0v5.599H8.297v-5.599h20.987zm-409.43-11.198v5.599h-20.988v-5.599h20.988zm314.986 0v5.599h-20.988v-5.599h20.988zm-188.975 0v5.599h-20.987v-5.599h20.987zm126.012 0v5.599h-20.988v-5.599h20.988zm251.937 0v5.599h-20.987v-5.599h20.987zm-314.986 0v5.599h-20.987v-5.599h20.987zm-251.937 0v5.599h-20.988v-5.599h20.988zm503.96 0v5.599H39.864v-5.599h20.987zm-566.923 0v5.599h-20.988v-5.599h20.988zm503.875 0v5.599h-20.988v-5.599h20.988zm-314.901 0v5.599h-20.987v-5.599h20.987zm503.875 0v5.599H165.79v-5.599h20.987zm-661.368-11.198v5.599h-20.988v-5.599h20.988zm314.901 0v5.599h-20.988v-5.599h20.988zm-188.975 0v5.599h-20.987v-5.599h20.987zm-62.963 0v5.599h-20.987v-5.599h20.987zm440.912 0v5.599H8.297v-5.599h20.987zm126.012 0v5.599h-20.988v-5.599h20.988zm62.963 0v5.599h-20.988v-5.599h20.988zm-251.938 0v5.599h-20.987v-5.599h20.987zm-62.963 0v5.599h-20.987v-5.599h20.987zm-188.974 0v5.599h-20.988v-5.599h20.988zm62.963 0v5.599h-20.988v-5.599h20.988zm314.986 0v5.599H71.345v-5.599h20.988zm-472.479-11.198v5.599h-20.988v-5.599h20.988zm63.048 0v5.599h-20.987v-5.599h20.987zm314.901 0v5.599h-20.988v-5.599h20.988zm188.974 0v5.599H165.79v-5.599h20.987zm-692.849 0v5.599h-20.988v-5.599h20.988zm566.923 0v5.599H39.864v-5.599h20.987zm62.963 0v5.599h-20.987v-5.599h20.987zm-314.986 0v5.599h-20.987v-5.599h20.987zm126.012 0v5.599h-20.988v-5.599h20.988zm-377.949 0v5.599h-20.988v-5.599h20.988zm188.974 0v5.599h-20.987v-5.599h20.987zm126.012 0v5.599h-20.988v-5.599h20.988zm-157.493-11.198v5.599h-20.988v-5.599h20.988zm125.926 0v5.599h-20.988v-5.599h20.988zm377.949 0v5.599h-20.988v-5.599h20.988zm-125.926 0v5.599H71.345v-5.599h20.988zm62.963 0v5.599h-20.988v-5.599h20.988zm-566.924 0v5.599h-20.987v-5.599h20.987zm62.963 0v5.599h-20.987v-5.599h20.987zm-125.926 0v5.599h-20.988v-5.599h20.988zm377.949 0v5.599h-20.987v-5.599h20.987zm62.963 0v5.599h-20.987v-5.599h20.987zm62.963 0v5.599H8.297v-5.599h20.987zm-251.937 0v5.599h-20.988v-5.599h20.988zm-31.482-11.198v5.599h-20.987v-5.599h20.987zm377.949 0v5.599h-20.987v-5.599h20.987zm-566.923 0v5.599h-20.988v-5.599h20.988zm503.96 0v5.599H39.864v-5.599h20.987zm125.926 0v5.599H165.79v-5.599h20.987zm-566.923 0v5.599h-20.988v-5.599h20.988zm-125.926 0v5.599h-20.988v-5.599h20.988zm188.974 0v5.599h-20.987v-5.599h20.987zm188.975 0v5.599h-20.988v-5.599h20.988zm62.963 0v5.599h-20.988v-5.599h20.988zm62.963 0v5.599h-20.988v-5.599h20.988zm-188.975 0v5.599h-20.987v-5.599h20.987zm157.493-11.198v5.599h-20.987v-5.599h20.987zm-251.937 0v5.599h-20.988v-5.599h20.988zm62.963 0v5.599h-20.988v-5.599h20.988zm251.937 0v5.599H8.297v-5.599h20.987zm-188.974 0v5.599h-20.988v-5.599h20.988zm-188.975 0v5.599h-20.987v-5.599h20.987zm566.924 0v5.599h-20.988v-5.599h20.988zm-62.963 0v5.599h-20.988v-5.599h20.988zm-566.924 0v5.599h-20.987v-5.599h20.987zm-62.963 0v5.599h-20.988v-5.599h20.988zm566.924 0v5.599H71.345v-5.599h20.988zm-188.975 0v5.599h-20.987v-5.599h20.987zm-283.504-11.198v5.599h-20.988v-5.599h20.988zm503.96 0v5.599h-20.987v-5.599h20.987zm-629.886 0v5.599h-20.988v-5.599h20.988zm566.923 0v5.599H39.864v-5.599h20.987zm-314.986 0v5.599h-20.987v-5.599h20.987zm-188.974 0v5.599h-20.988v-5.599h20.988zm314.986 0v5.599h-20.988v-5.599h20.988zm314.9 0v5.599H165.79v-5.599h20.987zm-377.949 0v5.599h-20.987v-5.599h20.987zm126.012 0v5.599h-20.988v-5.599h20.988zm62.963 0v5.599h-20.988v-5.599h20.988zm-314.901 0v5.599h-20.987v-5.599h20.987zM29.284 587.26v5.599H8.297v-5.599h20.987zm188.975 0v5.599h-20.988v-5.599h20.988zm-251.938 0v5.599h-20.987v-5.599h20.987zm-188.974 0v5.599h-20.988v-5.599h20.988zm-188.975 0v5.599h-20.987v-5.599h20.987zm566.924 0v5.599h-20.988v-5.599h20.988zm-314.986 0v5.599h-20.988v-5.599h20.988zm252.023 0v5.599H71.345v-5.599h20.988zm-566.924 0v5.599h-20.988v-5.599h20.988zm188.975 0v5.599h-20.988v-5.599h20.988zm-63.049 0v5.599h-20.987v-5.599h20.987zm252.023 0v5.599h-20.987v-5.599h20.987zm220.456-11.198v5.599h-20.987v-5.599h20.987zm-62.963 0v5.599H39.864v-5.599h20.987zm-314.986 0v5.599h-20.987v-5.599h20.987zm-126.011 0v5.599h-20.988v-5.599h20.988zm-62.963 0v5.599h-20.988v-5.599h20.988zm126.011 0v5.599h-20.987v-5.599h20.987zm125.926 0v5.599h-20.987v-5.599h20.987zm63.049 0v5.599h-20.988v-5.599h20.988zm62.963 0v5.599h-20.988v-5.599h20.988zm251.937 0v5.599H165.79v-5.599h20.987zm-692.849 0v5.599h-20.988v-5.599h20.988zm503.875 0v5.599h-20.988v-5.599h20.988zm-157.493-11.198v5.599h-20.988v-5.599h20.988zm-314.901 0v5.599h-20.988v-5.599h20.988zm125.926 0v5.599h-20.987v-5.599h20.987zm126.012 0v5.599h-20.988v-5.599h20.988zm314.986 0v5.599H71.345v-5.599h20.988zm62.963 0v5.599h-20.988v-5.599h20.988zm-126.012 0v5.599H8.297v-5.599h20.987zm-440.912 0v5.599h-20.987v-5.599h20.987zm629.887 0v5.599h-20.988v-5.599h20.988zm-314.901 0v5.599h-20.987v-5.599h20.987zm62.963 0v5.599h-20.987v-5.599h20.987zm-251.937 0v5.599h-20.988v-5.599h20.988zm-31.482-11.198v5.6h-20.987v-5.6h20.987zm-188.974 0v5.6h-20.988v-5.6h20.988zm692.849 0v5.6H165.79v-5.6h20.987zm-440.912 0v5.6h-20.987v-5.6h20.987zm62.963 0v5.6h-20.987v-5.6h20.987zm252.023 0v5.6H39.864v-5.6h20.987zm62.963 0v5.6h-20.987v-5.6h20.987zm-126.011 0v5.6h-20.988v-5.6h20.988zm-440.912 0v5.6h-20.988v-5.6h20.988zm314.986 0v5.6h-20.988v-5.6h20.988zm62.963 0v5.6h-20.988v-5.6h20.988zm-314.986 0v5.6h-20.988v-5.6h20.988zm94.53-11.197v5.598h-20.988v-5.598h20.988zm-126.012 0v5.598h-20.987v-5.598h20.987zm251.938 0v5.598h-20.988v-5.598h20.988zm-62.963 0v5.598h-20.988v-5.598h20.988zm377.949 0v5.598h-20.988v-5.598h20.988zm-629.887 0v5.598h-20.988v-5.598h20.988zm440.912 0v5.598h-20.987v-5.598h20.987zm-62.963 0v5.598h-20.987v-5.598h20.987zm188.975 0v5.598H71.345v-5.598h20.988zm-440.998 0v5.598h-20.987v-5.598h20.987zm566.924 0v5.598h-20.988v-5.598h20.988zm-188.975 0v5.598H8.297v-5.598h20.987zm-283.419-11.198v5.599h-20.987v-5.599h20.987zm-126.011 0v5.599h-20.988v-5.599h20.988zm-62.963 0v5.599h-20.988v-5.599h20.988zm629.886 0v5.599H165.79v-5.599h20.987zm-62.963 0v5.599h-20.987v-5.599h20.987zm-629.886 0v5.599h-20.988v-5.599h20.988zm314.9 0v5.599h-20.987v-5.599h20.987zm252.023 0v5.599H39.864v-5.599h20.987zm-377.949 0v5.599h-20.987v-5.599h20.987zm314.901 0v5.599h-20.988v-5.599h20.988zm-62.963 0v5.599h-20.988v-5.599h20.988zm-62.963 0v5.599h-20.988v-5.599h20.988zm157.407-11.198v5.599H8.297v-5.599h20.987zm-125.926 0v5.599h-20.987v-5.599h20.987zm-126.011 0v5.599h-20.988v-5.599h20.988zm440.912 0v5.599h-20.988v-5.599h20.988zm-125.926 0v5.599H71.345v-5.599h20.988zm-252.023 0v5.599h-20.988v-5.599h20.988zm-314.901 0v5.599h-20.988v-5.599h20.988zm440.912 0v5.599h-20.987v-5.599h20.987zm-377.949 0v5.599h-20.987v-5.599h20.987zm126.012 0v5.599h-20.988v-5.599h20.988zm440.912 0v5.599h-20.988v-5.599h20.988zm-503.961 0v5.599h-20.987v-5.599h20.987zm-94.444-11.198v5.599h-20.988v-5.599h20.988zm377.949 0v5.599h-20.988v-5.599h20.988zm-314.986 0v5.599h-20.988v-5.599h20.988zm377.949 0v5.599h-20.988v-5.599h20.988zm63.048 0v5.599H39.864v-5.599h20.987zm-188.974 0v5.599h-20.988v-5.599h20.988zm314.9 0v5.599H165.79v-5.599h20.987zm-503.875 0v5.599h-20.987v-5.599h20.987zm125.926 0v5.599h-20.987v-5.599h20.987zm-62.963 0v5.599h-20.987v-5.599h20.987zm-251.937 0v5.599h-20.988v-5.599h20.988zm629.886 0v5.599h-20.987v-5.599h20.987zm-346.467-11.198v5.599h-20.988v-5.599h20.988zm440.912 0v5.599h-20.988v-5.599h20.988zm-377.949 0v5.599h-20.988v-5.599h20.988zm-125.926 0v5.599h-20.988v-5.599h20.988zm-63.049 0v5.599h-20.987v-5.599h20.987zm503.961 0v5.599h-20.988v-5.599h20.988zm-126.012 0v5.599H8.297v-5.599h20.987zm-62.963 0v5.599h-20.987v-5.599h20.987zm126.012 0v5.599H71.345v-5.599h20.988zm-503.961 0v5.599h-20.987v-5.599h20.987zm314.986 0v5.599h-20.987v-5.599h20.987zm-377.949 0v5.599h-20.988v-5.599h20.988zm346.468-11.198v5.599h-20.988v-5.599h20.988zm-126.012 5.599h-20.987v-5.599h20.987v5.599zm377.949 0h-20.987v-5.599h20.987v5.599zm-629.886 0h-20.988v-5.599h20.988v5.599zm692.849 0H165.79v-5.599h20.987v5.599zm-503.875 0h-20.987v-5.599h20.987v5.599zm377.949 0H39.864v-5.599h20.987v5.599zm-126.011 0h-20.988v-5.599h20.988v5.599zm62.963 0h-20.988v-5.599h20.988v5.599zm-377.949 0h-20.988v-5.599h20.988v5.599zm188.974 0h-20.987v-5.599h20.987v5.599zm-251.937 0h-20.988v-5.599h20.988v5.599zm220.456-16.797v5.599h-20.988v-5.599h20.988zm377.949 0v5.599h-20.988v-5.599h20.988zm-503.961 0v5.599h-20.987v-5.599h20.987zm377.949 0v5.599H8.297v-5.599h20.987zm-503.875 0v5.599h-20.988v-5.599h20.988zm692.85 0v5.599h-20.988v-5.599h20.988zm-629.887 0v5.599h-20.987v-5.599h20.987zm251.938 0v5.599h-20.988v-5.599h20.988zm-125.926 0v5.599h-20.988v-5.599h20.988zm251.937 0v5.599h-20.987v-5.599h20.987zm-62.963 0v5.599h-20.987v-5.599h20.987zm188.975 0v5.599H71.345v-5.599h20.988zm-472.479-11.198v5.599h-20.988v-5.599h20.988zm63.048 0v5.599h-20.987v-5.599h20.987zm62.963 0v5.599h-20.987v-5.599h20.987zm-188.974 0v5.599h-20.988v-5.599h20.988zm377.949 0v5.599h-20.988v-5.599h20.988zm-62.963 0v5.599h-20.988v-5.599h20.988zm251.937 0v5.599h-20.987v-5.599h20.987zm-314.986 0v5.599h-20.987v-5.599h20.987zm252.023 0v5.599H39.864v-5.599h20.987zm125.926 0v5.599H165.79v-5.599h20.987zm-692.849 0v5.599h-20.988v-5.599h20.988zm503.875 0v5.599h-20.988v-5.599h20.988zm220.456-11.198v5.599h-20.988v-5.599h20.988zm-62.963 0v5.599h-20.988v-5.599h20.988zm-377.949 0v5.599h-20.988v-5.599h20.988zm188.974 0v5.599h-20.987v-5.599h20.987zm-126.011 0v5.599h-20.988v-5.599h20.988zm-314.901 0v5.599h-20.988v-5.599h20.988zm503.875 0v5.599H8.297v-5.599h20.987zm-377.949 0v5.599h-20.987v-5.599h20.987zm-62.963 0v5.599h-20.987v-5.599h20.987zm126.012 0v5.599h-20.988v-5.599h20.988zm188.974 0v5.599h-20.987v-5.599h20.987zm188.975 0v5.599H71.345v-5.599h20.988zm-598.405-11.198v5.599h-20.988v-5.599h20.988zm314.9 0v5.599h-20.987v-5.599h20.987zm-188.974 0v5.599h-20.988v-5.599h20.988zm440.997 0v5.599H39.864v-5.599h20.987zm-126.011 0v5.599h-20.988v-5.599h20.988zm-377.949 0v5.599h-20.988v-5.599h20.988zm314.986 0v5.599h-20.988v-5.599h20.988zm-188.975 0v5.599h-20.987v-5.599h20.987zm440.912 0v5.599h-20.987v-5.599h20.987zm-126.011 0v5.599h-20.988v-5.599h20.988zm-251.938 0v5.599h-20.987v-5.599h20.987zm440.912 0v5.599H165.79v-5.599h20.987zm31.482-11.198v5.599h-20.988v-5.599h20.988zm-692.85 0v5.599h-20.988v-5.599h20.988zm188.975 0v5.599h-20.988v-5.599h20.988zm251.937 0v5.599h-20.987v-5.599h20.987zm62.963 0v5.599H8.297v-5.599h20.987zm126.012 0v5.599h-20.988v-5.599h20.988zm-566.924 0v5.599h-20.987v-5.599h20.987zm503.961 0v5.599H71.345v-5.599h20.988zm-188.975 0v5.599h-20.987v-5.599h20.987zm-252.023 0v5.599h-20.987v-5.599h20.987zm188.975 0v5.599h-20.988v-5.599h20.988zm-62.963 0v5.599h-20.988v-5.599h20.988zm31.481-11.198v5.599h-20.987v-5.599h20.987zm-314.9 0v5.599h-20.988v-5.599h20.988zm188.974 0v5.599h-20.987v-5.599h20.987zm440.912 0v5.599h-20.987v-5.599h20.987zm62.963 0v5.599H165.79v-5.599h20.987zm-188.974 0v5.599h-20.988v-5.599h20.988zm-251.938 0v5.599h-20.987v-5.599h20.987zm126.012 0v5.599h-20.988v-5.599h20.988zm62.963 0v5.599h-20.988v-5.599h20.988zm126.011 0v5.599H39.864v-5.599h20.987zm-440.997 0v5.599h-20.988v-5.599h20.988zm-62.963 0v5.599h-20.988v-5.599h20.988zm94.444-11.198v5.599h-20.987v-5.599h20.987zm440.998 0v5.599H71.345v-5.599h20.988zm-314.986 0v5.599h-20.988v-5.599h20.988zm126.011 0v5.599h-20.987v-5.599h20.987zm-188.974 0v5.599h-20.988v-5.599h20.988zm125.926 0v5.599h-20.988v-5.599h20.988zm126.011 0v5.599h-20.987v-5.599h20.987zm251.938 0v5.599h-20.988v-5.599h20.988zm-692.85 0v5.599h-20.988v-5.599h20.988zm629.887 0v5.599h-20.988v-5.599h20.988zm-566.924 0v5.599h-20.987v-5.599h20.987zm440.912 0v5.599H8.297v-5.599h20.987zm-472.393-11.198v5.599h-20.988v-5.599h20.988zm377.949 0v5.599h-20.988v-5.599h20.988zm-188.975 0v5.599h-20.987v-5.599h20.987zm126.012 0v5.599h-20.988v-5.599h20.988zm251.937 0v5.599h-20.987v-5.599h20.987zm-314.986 0v5.599h-20.987v-5.599h20.987zm-188.974 0v5.599h-20.988v-5.599h20.988zm440.997 0v5.599H39.864v-5.599h20.987zm-566.923 0v5.599h-20.988v-5.599h20.988zm503.875 0v5.599h-20.988v-5.599h20.988zm-314.901 0v5.599h-20.987v-5.599h20.987zm503.875 0v5.599H165.79v-5.599h20.987zm-661.368-11.198v5.599h-20.988v-5.599h20.988zm314.901 0v5.599h-20.988v-5.599h20.988zm-188.975 0v5.599h-20.987v-5.599h20.987zm-62.963 0v5.599h-20.987v-5.599h20.987zm440.912 0v5.599H8.297v-5.599h20.987zm126.012 0v5.599h-20.988v-5.599h20.988zm62.963 0v5.599h-20.988v-5.599h20.988zm-251.938 0v5.599h-20.987v-5.599h20.987zm-62.963 0v5.599h-20.987v-5.599h20.987zm-188.974 0v5.599h-20.988v-5.599h20.988zm62.963 0v5.599h-20.988v-5.599h20.988zm314.986 0v5.599H71.345v-5.599h20.988zm-472.479-11.198v5.599h-20.988v-5.599h20.988zm63.048 0v5.599h-20.987v-5.599h20.987zm314.901 0v5.599h-20.988v-5.599h20.988zm188.974 0v5.599H165.79v-5.599h20.987zm-692.849 0v5.599h-20.988v-5.599h20.988zm566.923 0v5.599H39.864v-5.599h20.987zm62.963 0v5.599h-20.987v-5.599h20.987zm-314.986 0v5.599h-20.987v-5.599h20.987zm126.012 0v5.599h-20.988v-5.599h20.988zm-377.949 0v5.599h-20.988v-5.599h20.988zm188.974 0v5.599h-20.987v-5.599h20.987zm126.012 0v5.599h-20.988v-5.599h20.988zm-346.468-11.198v5.599h-20.988v-5.599h20.988zm314.901 0v5.599h-20.988v-5.599h20.988zm377.949 0v5.599h-20.988v-5.599h20.988zm-125.926 0v5.599H71.345v-5.599h20.988zm62.963 0v5.599h-20.988v-5.599h20.988zm-566.924 0v5.599h-20.987v-5.599h20.987zm62.963 0v5.599h-20.987v-5.599h20.987zm252.023 0v5.599h-20.987v-5.599h20.987zm62.963 0v5.599h-20.987v-5.599h20.987zm62.963 0v5.599H8.297v-5.599h20.987zm-251.937 0v5.599h-20.988v-5.599h20.988zm-62.963 0v5.599h-20.988v-5.599h20.988zm409.43-11.198v5.599h-20.987v-5.599h20.987zm-566.923 0v5.599h-20.988v-5.599h20.988zm503.96 0v5.599H39.864v-5.599h20.987zm125.926 0v5.599H165.79v-5.599h20.987zm-566.923 0v5.599h-20.988v-5.599h20.988zm-125.926 0v5.599h-20.988v-5.599h20.988zm188.974 0v5.599h-20.987v-5.599h20.987zm188.975 0v5.599h-20.988v-5.599h20.988zm62.963 0v5.599h-20.988v-5.599h20.988zm62.963 0v5.599h-20.988v-5.599h20.988zm-188.975 0v5.599h-20.987v-5.599h20.987zm-62.963 0v5.599h-20.987v-5.599h20.987zm220.456-11.198v5.599h-20.987v-5.599h20.987zm-251.937 0v5.599h-20.988v-5.599h20.988zm62.963 0v5.599h-20.988v-5.599h20.988zm251.937 0v5.599H8.297v-5.599h20.987zm-188.974 0v5.599h-20.988v-5.599h20.988zm-188.975 0v5.599h-20.987v-5.599h20.987zm566.924 0v5.599h-20.988v-5.599h20.988zm-62.963 0v5.599h-20.988v-5.599h20.988zm-566.924 0v5.599h-20.987v-5.599h20.987zm-62.963 0v5.599h-20.988v-5.599h20.988zm566.924 0v5.599H71.345v-5.599h20.988zm-188.975 0v5.599h-20.987v-5.599h20.987zm-31.481-11.198v5.599h-20.988v-5.599h20.988zm251.937 0v5.599h-20.987v-5.599h20.987zm-629.886 0v5.599h-20.988v-5.599h20.988zm566.923 0v5.599H39.864v-5.599h20.987zm-314.986 0v5.599h-20.987v-5.599h20.987zm-188.974 0v5.599h-20.988v-5.599h20.988zm62.963 0v5.599h-20.988v-5.599h20.988zm566.923 0v5.599H165.79v-5.599h20.987zm-377.949 0v5.599h-20.987v-5.599h20.987zm126.012 0v5.599h-20.988v-5.599h20.988zm62.963 0v5.599h-20.988v-5.599h20.988zm-314.901 0v5.599h-20.987v-5.599h20.987zm346.382-11.198v5.599H8.297v-5.599h20.987zm188.975 0v5.599h-20.988v-5.599h20.988zm-251.938 0v5.599h-20.987v-5.599h20.987zm-188.974 0v5.599h-20.988v-5.599h20.988zm-188.975 0v5.599h-20.987v-5.599h20.987zm566.924 0v5.599h-20.988v-5.599h20.988zm-314.986 0v5.599h-20.988v-5.599h20.988zm252.023 0v5.599H71.345v-5.599h20.988zm-566.924 0v5.599h-20.988v-5.599h20.988zm188.975 0v5.599h-20.988v-5.599h20.988zm-63.049 0v5.599h-20.987v-5.599h20.987zm252.023 0v5.599h-20.987v-5.599h20.987zm220.456-11.198v5.599h-20.987v-5.599h20.987zm-62.963 0v5.599H39.864v-5.599h20.987zm-314.986 0v5.599h-20.987v-5.599h20.987zm-126.011 0v5.599h-20.988v-5.599h20.988zm-62.963 0v5.599h-20.988v-5.599h20.988zm126.011 0v5.599h-20.987v-5.599h20.987zm125.926 0v5.599h-20.987v-5.599h20.987zm63.049 0v5.599h-20.988v-5.599h20.988zm62.963 0v5.599h-20.988v-5.599h20.988zm251.937 0v5.599H165.79v-5.599h20.987zm-692.849 0v5.599h-20.988v-5.599h20.988zm503.875 0v5.599h-20.988v-5.599h20.988zm31.481-11.198v5.599H8.297v-5.599h20.987zm-503.875 0v5.599h-20.988v-5.599h20.988zm125.926 0v5.599h-20.987v-5.599h20.987zm126.012 0v5.599h-20.988v-5.599h20.988zm314.986 0v5.599H71.345v-5.599h20.988zm62.963 0v5.599h-20.988v-5.599h20.988zm-314.986 0v5.599h-20.988v-5.599h20.988zm-251.938 0v5.599h-20.987v-5.599h20.987zm629.887 0v5.599h-20.988v-5.599h20.988zm-314.901 0v5.599h-20.987v-5.599h20.987zm62.963 0v5.599h-20.987v-5.599h20.987zm-251.937 0v5.599h-20.988v-5.599h20.988zm-31.482-11.198v5.599h-20.987v-5.599h20.987zm-188.974 0v5.599h-20.988v-5.599h20.988zm692.849 0v5.599H165.79v-5.599h20.987zm-440.912 0v5.599h-20.987v-5.599h20.987zm62.963 0v5.599h-20.987v-5.599h20.987zm252.023 0v5.599H39.864v-5.599h20.987zm62.963 0v5.599h-20.987v-5.599h20.987zm-126.011 0v5.599h-20.988v-5.599h20.988zm-440.912 0v5.599h-20.988v-5.599h20.988zm314.986 0v5.599h-20.988v-5.599h20.988zm62.963 0v5.599h-20.988v-5.599h20.988zm-314.986 0v5.599h-20.988v-5.599h20.988zm94.53-11.198v5.599h-20.988v-5.599h20.988zm-126.012 0v5.599h-20.987v-5.599h20.987zm251.938 0v5.599h-20.988v-5.599h20.988zm-62.963 0v5.599h-20.988v-5.599h20.988zm377.949 0v5.599h-20.988v-5.599h20.988zm-629.887 0v5.599h-20.988v-5.599h20.988zm440.912 0v5.599h-20.987v-5.599h20.987zm-62.963 0v5.599h-20.987v-5.599h20.987zm188.975 0v5.599H71.345v-5.599h20.988zm-440.998 0v5.599h-20.987v-5.599h20.987zm566.924 0v5.599h-20.988v-5.599h20.988zm-188.975 0v5.599H8.297v-5.599h20.987zm-283.419-11.198v5.599h-20.987v-5.599h20.987zm-126.011 0v5.599h-20.988v-5.599h20.988zm-62.963 0v5.599h-20.988v-5.599h20.988zm629.886 0v5.599H165.79v-5.599h20.987zm-62.963 0v5.599h-20.987v-5.599h20.987zm-629.886 0v5.599h-20.988v-5.599h20.988zm314.9 0v5.599h-20.987v-5.599h20.987zm252.023 0v5.599H39.864v-5.599h20.987zm-377.949 0v5.599h-20.987v-5.599h20.987zm314.901 0v5.599h-20.988v-5.599h20.988zm-62.963 0v5.599h-20.988v-5.599h20.988zm-62.963 0v5.599h-20.988v-5.599h20.988zm157.407-11.198v5.599H8.297v-5.599h20.987zm-125.926 0v5.599h-20.987v-5.599h20.987zm-126.011 0v5.599h-20.988v-5.599h20.988zm440.912 0v5.599h-20.988v-5.599h20.988zm-125.926 0v5.599H71.345v-5.599h20.988zm-252.023 0v5.599h-20.988v-5.599h20.988zm-314.901 0v5.599h-20.988v-5.599h20.988zm440.912 0v5.599h-20.987v-5.599h20.987zm-377.949 0v5.599h-20.987v-5.599h20.987zm126.012 0v5.599h-20.988v-5.599h20.988zm440.912 0v5.599h-20.988v-5.599h20.988zm-503.961 0v5.599h-20.987v-5.599h20.987zm-94.444-11.198v5.599h-20.988v-5.599h20.988zm377.949 0v5.599h-20.988v-5.599h20.988zm-314.986 0v5.599h-20.988v-5.599h20.988zm377.949 0v5.599h-20.988v-5.599h20.988zm63.048 0v5.599H39.864v-5.599h20.987zm-188.974 0v5.599h-20.988v-5.599h20.988zm314.9 0v5.599H165.79v-5.599h20.987zm-503.875 0v5.599h-20.987v-5.599h20.987zm125.926 0v5.599h-20.987v-5.599h20.987zm-62.963 0v5.599h-20.987v-5.599h20.987zm-251.937 0v5.599h-20.988v-5.599h20.988zm629.886 0v5.599h-20.987v-5.599h20.987zm-346.467-11.198v5.599h-20.988v-5.599h20.988zm440.912 0v5.599h-20.988v-5.599h20.988zm-377.949 0v5.599h-20.988v-5.599h20.988zm-125.926 0v5.599h-20.988v-5.599h20.988zm-63.049 0v5.599h-20.987v-5.599h20.987zm503.961 0v5.599h-20.988v-5.599h20.988zm-629.887 0v5.599h-20.988v-5.599h20.988zm503.875 0v5.599H8.297v-5.599h20.987zm-62.963 0v5.599h-20.987v-5.599h20.987zm126.012 0v5.599H71.345v-5.599h20.988zm-503.961 0v5.599h-20.987v-5.599h20.987zm314.986 0v5.599h-20.987v-5.599h20.987zm283.419-11.198v5.624H165.79v-5.624h20.987zm-314.9 0v5.624h-20.988v-5.624h20.988zm-126.012 0v5.624h-20.987v-5.624h20.987zm251.938 0v5.624h-20.988v-5.624h20.988zm-503.875 0v5.624h-20.988v-5.624h20.988zm440.912 0v5.624h-20.988v-5.624h20.988zm-314.986 0v5.624h-20.988v-5.624h20.988zm503.96 0v5.624h-20.987v-5.624h20.987zm-440.912 0v5.624h-20.987v-5.624h20.987zm125.926 0v5.624h-20.987v-5.624h20.987zm252.023 0v5.624H39.864v-5.624h20.987zm-503.96 0v5.624h-20.988v-5.624h20.988zm220.456-11.173v5.599h-20.988v-5.599h20.988zm377.949 0v5.599h-20.988v-5.599h20.988zm-503.961 0v5.599h-20.987v-5.599h20.987zm377.949 0v5.599H8.297v-5.599h20.987zm-503.875 0v5.599h-20.988v-5.599h20.988zm692.85 0v5.599h-20.988v-5.599h20.988zm-629.887 0v5.599h-20.987v-5.599h20.987zm251.938 0v5.599h-20.988v-5.599h20.988zm-125.926 0v5.599h-20.988v-5.599h20.988zm251.937 0v5.599h-20.987v-5.599h20.987zm-62.963 0v5.599h-20.987v-5.599h20.987zm188.975 0v5.599H71.345v-5.599h20.988zm-409.431-11.198v5.599h-20.987v-5.599h20.987zm62.963 0v5.599h-20.987v-5.599h20.987zm-188.974 0v5.599h-20.988v-5.599h20.988zm377.949 0v5.599h-20.988v-5.599h20.988zm-62.963 0v5.599h-20.988v-5.599h20.988zm251.937 0v5.599h-20.987v-5.599h20.987zm-314.986 0v5.599h-20.987v-5.599h20.987zm252.023 0v5.599H39.864v-5.599h20.987zm125.926 0v5.599H165.79v-5.599h20.987zm-692.849 0v5.599h-20.988v-5.599h20.988zm503.875 0v5.599h-20.988v-5.599h20.988zm-377.949 0v5.599h-20.988v-5.599h20.988zm535.442-11.198v5.599h-20.988v-5.599h20.988zm-377.949 0v5.599h-20.988v-5.599h20.988zm188.974 0v5.599h-20.987v-5.599h20.987zm-126.011 0v5.599h-20.988v-5.599h20.988zm-314.901 0v5.599h-20.988v-5.599h20.988zm692.85 0v5.599h-20.988v-5.599h20.988zm-188.975 0v5.599H8.297v-5.599h20.987zm-377.949 0v5.599h-20.987v-5.599h20.987zm-62.963 0v5.599h-20.987v-5.599h20.987zm126.012 0v5.599h-20.988v-5.599h20.988zm188.974 0v5.599h-20.987v-5.599h20.987zm188.975 0v5.599H71.345v-5.599h20.988zm-283.505-11.198v5.599h-20.987v-5.599h20.987zm-188.974 0v5.599h-20.988v-5.599h20.988zm440.997 0v5.599H39.864v-5.599h20.987zm-126.011 0v5.599h-20.988v-5.599h20.988zm-377.949 0v5.599h-20.988v-5.599h20.988zm314.986 0v5.599h-20.988v-5.599h20.988zm-188.975 0v5.599h-20.987v-5.599h20.987zm440.912 0v5.599h-20.987v-5.599h20.987zm-126.011 0v5.599h-20.988v-5.599h20.988zm-251.938 0v5.599h-20.987v-5.599h20.987zm440.912 0v5.599H165.79v-5.599h20.987zm-692.849 0v5.599h-20.988v-5.599h20.988zm31.481-11.198v5.599h-20.988v-5.599h20.988zm188.975 0v5.599h-20.988v-5.599h20.988zm251.937 0v5.599h-20.987v-5.599h20.987zm62.963 0v5.599H8.297v-5.599h20.987zm126.012 0v5.599h-20.988v-5.599h20.988zm-566.924 0v5.599h-20.987v-5.599h20.987zm503.961 0v5.599H71.345v-5.599h20.988zm-188.975 0v5.599h-20.987v-5.599h20.987zm-252.023 0v5.599h-20.987v-5.599h20.987zm188.975 0v5.599h-20.988v-5.599h20.988zm-62.963 0v5.599h-20.988v-5.599h20.988zm440.912 0v5.599h-20.988v-5.599h20.988zm-724.331-11.198v5.599h-20.988v-5.599h20.988zm188.974 0v5.599h-20.987v-5.599h20.987zm440.912 0v5.599h-20.987v-5.599h20.987zm62.963 0v5.599H165.79v-5.599h20.987zm-188.974 0v5.599h-20.988v-5.599h20.988zm-188.975 0v5.599h-20.987v-5.599h20.987zm-62.963 0v5.599h-20.987v-5.599h20.987zm126.012 0v5.599h-20.988v-5.599h20.988zm62.963 0v5.599h-20.988v-5.599h20.988zm126.011 0v5.599H39.864v-5.599h20.987zm-440.997 0v5.599h-20.988v-5.599h20.988zm-62.963 0v5.599h-20.988v-5.599h20.988zm535.442-11.198v5.599H71.345v-5.599h20.988zm-314.986 0v5.599h-20.988v-5.599h20.988zm126.011 0v5.599h-20.987v-5.599h20.987zm-188.974 0v5.599h-20.988v-5.599h20.988zm125.926 0v5.599h-20.988v-5.599h20.988zm126.011 0v5.599h-20.987v-5.599h20.987zm251.938 0v5.599h-20.988v-5.599h20.988zm-692.85 0v5.599h-20.988v-5.599h20.988zm629.887 0v5.599h-20.988v-5.599h20.988zm-566.924 0v5.599h-20.987v-5.599h20.987zm440.912 0v5.599H8.297v-5.599h20.987zm-377.949 0v5.599h-20.987v-5.599h20.987zm283.505-11.198v5.599h-20.988v-5.599h20.988zm-188.975 0v5.599h-20.987v-5.599h20.987zm126.012 0v5.599h-20.988v-5.599h20.988zm251.937 0v5.599h-20.987v-5.599h20.987zm-314.986 0v5.599h-20.987v-5.599h20.987zm-251.937 0v5.599h-20.988v-5.599h20.988zm503.96 0v5.599H39.864v-5.599h20.987zm-566.923 0v5.599h-20.988v-5.599h20.988zm503.875 0v5.599h-20.988v-5.599h20.988zm-314.901 0v5.599h-20.987v-5.599h20.987zm503.875 0v5.599H165.79v-5.599h20.987zm-566.923 0v5.599h-20.988v-5.599h20.988zm220.456-11.198v5.599h-20.988v-5.599h20.988zm-188.975 0v5.599h-20.987v-5.599h20.987zm-62.963 0v5.599h-20.987v-5.599h20.987zm440.912 0v5.599H8.297v-5.599h20.987zm126.012 0v5.599h-20.988v-5.599h20.988zm-629.887 0v5.599h-20.988v-5.599h20.988zm692.85 0v5.599h-20.988v-5.599h20.988zm-251.938 0v5.599h-20.987v-5.599h20.987zm-62.963 0v5.599h-20.987v-5.599h20.987zm-188.974 0v5.599h-20.988v-5.599h20.988zm62.963 0v5.599h-20.988v-5.599h20.988zm314.986 0v5.599H71.345v-5.599h20.988zm-409.431-11.198v5.599h-20.987v-5.599h20.987zm314.901 0v5.599h-20.988v-5.599h20.988zm188.974 0v5.599H165.79v-5.599h20.987zm-692.849 0v5.599h-20.988v-5.599h20.988zm566.923 0v5.599H39.864v-5.599h20.987zm62.963 0v5.599h-20.987v-5.599h20.987zm-314.986 0v5.599h-20.987v-5.599h20.987zm126.012 0v5.599h-20.988v-5.599h20.988zm-377.949 0v5.599h-20.988v-5.599h20.988zm188.974 0v5.599h-20.987v-5.599h20.987zm126.012 0v5.599h-20.988v-5.599h20.988zm-252.023 0v5.599h-20.988v-5.599h20.988zm220.456-11.198v5.599h-20.988v-5.599h20.988zm377.949 0v5.599h-20.988v-5.599h20.988zm-125.926 0v5.599H71.345v-5.599h20.988zm62.963 0v5.599h-20.988v-5.599h20.988zm-566.924 0v5.599h-20.987v-5.599h20.987zm62.963 0v5.599h-20.987v-5.599h20.987zm-125.926 0v5.599h-20.988v-5.599h20.988zm377.949 0v5.599h-20.987v-5.599h20.987zm62.963 0v5.599h-20.987v-5.599h20.987zm62.963 0v5.599H8.297v-5.599h20.987zm-251.937 0v5.599h-20.988v-5.599h20.988zm-62.963 0v5.599h-20.988v-5.599h20.988zm409.43-11.198v5.599h-20.987v-5.599h20.987zm-566.923 0v5.599h-20.988v-5.599h20.988zm503.96 0v5.599H39.864v-5.599h20.987zm125.926 0v5.599H165.79v-5.599h20.987zm-566.923 0v5.599h-20.988v-5.599h20.988zm-125.926 0v5.599h-20.988v-5.599h20.988zm188.974 0v5.599h-20.987v-5.599h20.987zm188.975 0v5.599h-20.988v-5.599h20.988zm62.963 0v5.599h-20.988v-5.599h20.988zm62.963 0v5.599h-20.988v-5.599h20.988zm-188.975 0v5.599h-20.987v-5.599h20.987zm-62.963 0v5.599h-20.987v-5.599h20.987zm-31.481-11.198v5.599h-20.988v-5.599h20.988zm62.963 0v5.599h-20.988v-5.599h20.988zm251.937 0v5.599H8.297v-5.599h20.987zm-188.974 0v5.599h-20.988v-5.599h20.988zm-188.975 0v5.599h-20.987v-5.599h20.987zm566.924 0v5.599h-20.988v-5.599h20.988zm-62.963 0v5.599h-20.988v-5.599h20.988zm-566.924 0v5.599h-20.987v-5.599h20.987zm-62.963 0v5.599h-20.988v-5.599h20.988zm566.924 0v5.599H71.345v-5.599h20.988zm-188.975 0v5.599h-20.987v-5.599h20.987zm62.963 0v5.599h-20.987v-5.599h20.987zM123.814 60.98v5.599h-20.987V60.98h20.987zm-629.886 0v5.599h-20.988V60.98h20.988zm566.923 0v5.599H39.864V60.98h20.987zm-314.986 0v5.599h-20.987V60.98h20.987zm-188.974 0v5.599h-20.988V60.98h20.988zm314.986 0v5.599h-20.988V60.98h20.988zm314.9 0v5.599H165.79V60.98h20.987zm-377.949 0v5.599h-20.987V60.98h20.987zm126.012 0v5.599h-20.988V60.98h20.988zm62.963 0v5.599h-20.988V60.98h20.988zm-314.901 0v5.599h-20.987V60.98h20.987zm-63.048 0v5.599h-20.988V60.98h20.988zm598.405-11.198v5.599h-20.988v-5.599h20.988zm-251.938 0v5.599h-20.987v-5.599h20.987zm-188.974 0v5.599h-20.988v-5.599h20.988zm-188.975 0v5.599h-20.987v-5.599h20.987zm566.924 0v5.599h-20.988v-5.599h20.988zm-126.012 0v5.599H8.297v-5.599h20.987zm-188.974 0v5.599h-20.988v-5.599h20.988zm252.023 0v5.599H71.345v-5.599h20.988zm-566.924 0v5.599h-20.988v-5.599h20.988zm188.975 0v5.599h-20.988v-5.599h20.988zm-63.049 0v5.599h-20.987v-5.599h20.987zm252.023 0v5.599h-20.987v-5.599h20.987zM60.851 38.584v5.599H39.864v-5.599h20.987zm-314.986 0v5.599h-20.987v-5.599h20.987zm-126.011 0v5.599h-20.988v-5.599h20.988zm-62.963 0v5.599h-20.988v-5.599h20.988zm126.011 0v5.599h-20.987v-5.599h20.987zm125.926 0v5.599h-20.987v-5.599h20.987zm63.049 0v5.599h-20.988v-5.599h20.988zm62.963 0v5.599h-20.988v-5.599h20.988zm251.937 0v5.599H165.79v-5.599h20.987zm-692.849 0v5.599h-20.988v-5.599h20.988zm503.875 0v5.599h-20.988v-5.599h20.988zm126.011 0v5.599h-20.987v-5.599h20.987zm-598.405-11.198v5.599h-20.988v-5.599h20.988zm125.926 0v5.599h-20.987v-5.599h20.987zm126.012 0v5.599h-20.988v-5.599h20.988zm314.986 0v5.599H71.345v-5.599h20.988zm62.963 0v5.599h-20.988v-5.599h20.988zm-314.986 0v5.599h-20.988v-5.599h20.988zm-251.938 0v5.599h-20.987v-5.599h20.987zm629.887 0v5.599h-20.988v-5.599h20.988zm-314.901 0v5.599h-20.987v-5.599h20.987zm62.963 0v5.599h-20.987v-5.599h20.987zm-251.937 0v5.599h-20.988v-5.599h20.988zm314.9 0v5.599H8.297v-5.599h20.987zm-535.356-11.198v5.599h-20.988v-5.599h20.988zm692.849 0v5.599H165.79v-5.599h20.987zm-440.912 0v5.599h-20.987v-5.599h20.987zm62.963 0v5.599h-20.987v-5.599h20.987zm252.023 0v5.599H39.864v-5.599h20.987zm-377.949 0v5.599h-20.987v-5.599h20.987zm440.912 0v5.599h-20.987v-5.599h20.987zm-126.011 0v5.599h-20.988v-5.599h20.988zm-440.912 0v5.599h-20.988v-5.599h20.988zm314.986 0v5.599h-20.988v-5.599h20.988zm62.963 0v5.599h-20.988v-5.599h20.988zm-314.986 0v5.599h-20.988v-5.599h20.988zM-411.628 4.99v5.599h-20.987V4.99h20.987zm251.938 0v5.599h-20.988V4.99h20.988zm-62.963 0v5.599h-20.988V4.99h20.988zm377.949 0v5.599h-20.988V4.99h20.988zm-629.887 0v5.599h-20.988V4.99h20.988zm440.912 0v5.599h-20.987V4.99h20.987zm-62.963 0v5.599h-20.987V4.99h20.987zm188.975 0v5.599H71.345V4.99h20.988zm-440.998 0v5.599h-20.987V4.99h20.987zm566.924 0v5.599h-20.988V4.99h20.988zm-188.975 0v5.599H8.297V4.99h20.987zm-314.9 0v5.599h-20.988V4.99h20.988zm-94.53-11.198v5.599h-20.988v-5.599h20.988zm-62.963 0v5.599h-20.988v-5.599h20.988zm629.886 0v5.599H165.79v-5.599h20.987zm-62.963 0v5.599h-20.987v-5.599h20.987zm-629.886 0v5.599h-20.988v-5.599h20.988zm251.937 0v5.599h-20.987v-5.599h20.987zm314.986 0v5.599H39.864v-5.599h20.987zm-377.949 0v5.599h-20.987v-5.599h20.987zm314.901 0v5.599h-20.988v-5.599h20.988zm-62.963 0v5.599h-20.988v-5.599h20.988zm-62.963 0v5.599h-20.988v-5.599h20.988zm-63.049 0v5.599h-20.987v-5.599h20.987zm94.53-11.198v5.599h-20.987v-5.599h20.987zm-126.011 0v5.599h-20.988v-5.599h20.988zm440.912 0v5.599h-20.988v-5.599h20.988zm-125.926 0v5.599H71.345v-5.599h20.988zm-252.023 0v5.599h-20.988v-5.599h20.988zm-314.901 0v5.599h-20.988v-5.599h20.988zm440.912 0v5.599h-20.987v-5.599h20.987zm-377.949 0v5.599h-20.987v-5.599h20.987zm126.012 0v5.599h-20.988v-5.599h20.988zm440.912 0v5.599h-20.988v-5.599h20.988zm-503.961 0v5.599h-20.987v-5.599h20.987zm377.949 0v5.599H8.297v-5.599h20.987zM-65.16-28.604v5.599h-20.988v-5.599h20.988zm-314.986 0v5.599h-20.988v-5.599h20.988zm377.949 0v5.599h-20.988v-5.599h20.988zm63.048 0v5.599H39.864v-5.599h20.987zm-188.974 0v5.599h-20.988v-5.599h20.988zm-314.986 0v5.599h-20.988v-5.599h20.988zm629.886 0v5.599H165.79v-5.599h20.987zm-503.875 0v5.599h-20.987v-5.599h20.987zm125.926 0v5.599h-20.987v-5.599h20.987zm-62.963 0v5.599h-20.987v-5.599h20.987zm-251.937 0v5.599h-20.988v-5.599h20.988zm629.886 0v5.599h-20.987v-5.599h20.987zm-598.405-11.198v5.599h-20.988v-5.599h20.988zm251.938 0v5.599h-20.988v-5.599h20.988zm440.912 0v5.599h-20.988v-5.599h20.988zm-377.949 0v5.599h-20.988v-5.599h20.988zm-125.926 0v5.599h-20.988v-5.599h20.988zm-63.049 0v5.599h-20.987v-5.599h20.987zm503.961 0v5.599h-20.988v-5.599h20.988zm-126.012 0v5.599H8.297v-5.599h20.987zm-62.963 0v5.599h-20.987v-5.599h20.987zm126.012 0v5.599H71.345v-5.599h20.988zm-503.961 0v5.599h-20.987v-5.599h20.987zm314.986 0v5.599h-20.987v-5.599h20.987zM-443.109-51v5.599h-20.988V-51h20.988zm188.974 0v5.599h-20.987V-51h20.987zm377.949 0v5.599h-20.987V-51h20.987zm-629.886 0v5.599h-20.988V-51h20.988zm692.849 0v5.599H165.79V-51h20.987zm-503.875 0v5.599h-20.987V-51h20.987zm188.975 0v5.599h-20.988V-51h20.988zm188.974 0v5.599H39.864V-51h20.987zM-65.16-51v5.599h-20.988V-51h20.988zm62.963 0v5.599h-20.988V-51h20.988zm-377.949 0v5.599h-20.988V-51h20.988zm188.974 0v5.599h-20.987V-51h20.987z" mask="url(#patternb)" opacity=".881" style="mix-blend-mode:multiply"/></g></svg>