<svg xmlns="http://www.w3.org/2000/svg" version="1.1" xmlns:xlink="http://www.w3.org/1999/xlink" xmlns:svgjs="http://svgjs.com/svgjs" width="487px" height="487px"><svg width="487px" height="487px" viewBox="0 0 487 487" version="1.1" xmlns="http://www.w3.org/2000/svg" xmlns:xlink="http://www.w3.org/1999/xlink">
    <title>Group 20</title>
    <g id="SvgjsG1007" stroke="none" stroke-width="1" fill="none" fill-rule="evenodd">
        <g id="SvgjsG1006">
            <rect id="SvgjsRect1005" fill="#053848" x="0" y="0" width="487" height="487"></rect>
            <g id="SvgjsG1004" transform="translate(43.000000, 145.000000)">
                <path d="M12.2841267,157.912139 C21.0188423,167.121372 33.5761154,174.163814 46.9513352,174.163814 C63.8744735,174.163814 74.7943606,162.787789 74.7943606,145.723012 C74.7943606,105.365598 4.3673578,108.074457 4.3673578,52.2755072 C4.3673578,23.2941176 24.2951069,0 58.9623155,0 C73.155482,0 87.6247802,4.06254862 99.362614,12.1891269 L90.0816055,35.2122105 C82.9827833,29.2539046 69.6075635,24.1072198 59.2354619,24.1072198 C40.1271521,24.1072198 30.2998507,37.1079678 30.2998507,52.2755072 C30.2998507,91.8227814 101,87.4877177 101,144.369323 C101,174.163814 82.1648366,198 47.7692819,198 C30.5729972,198 13.3752198,191.77066 0,180.123601 L12.2841267,157.912139" id="SvgjsPath1003" fill="#FFFFFE"></path>
                <path d="M352.381763,0 C368.317568,0 385.873539,4.87565077 398.298741,15.7096074 L387.49518,37.92107 C379.661676,30.3365598 365.346035,24.3767728 352.920833,24.3767728 C316.998072,24.3767728 296.470569,56.3395368 296.470569,97.5100533 C296.470569,139.222638 317.538619,173.89278 352.111489,173.89278 C366.9662,173.89278 380.202223,167.66344 391.005784,158.996275 L401,180.935222 C389.115345,191.228592 372.098445,198 350.760121,198 C300.251446,198 270,154.661211 270,98.5941895 C270,41.7125845 300.791993,0 352.381763,0" id="SvgjsPath1002" fill="#FFFFFE"></path>
                <polygon id="SvgjsPolygon1001" fill="#FFFFFF" points="145 198 228 198 228 176 145 176"></polygon>
                <path d="M162.308033,39.3467223 C162.308033,47.7740061 165.606137,56.6205062 172.205299,65.8877038 C176.281425,63.9634567 180.271925,61.6762839 184.170893,59.0276667 C188.068384,56.3805308 191.279386,53.1601203 193.797992,49.3664354 C196.318074,45.575713 197.577377,40.9717408 197.577377,35.5545186 C197.577377,29.8988024 196.137963,25.3540833 193.259134,21.9233241 C190.378829,18.4925649 186.358803,16.7771852 181.202008,16.7771852 C175.562456,16.7771852 171.003572,18.8243827 167.526833,22.9158149 C164.045665,27.0102098 162.308033,32.4852038 162.308033,39.3467223 Z M138.195258,106.874611 C138.195258,112.290352 139.184394,116.986167 141.164142,120.957611 C143.143891,124.930537 146.081772,127.971707 149.98074,130.076676 C153.878232,132.183127 158.466642,133.23487 163.747447,133.23487 C168.425913,133.23487 172.534519,132.423102 176.073264,130.798083 C179.610533,129.173065 182.759528,127.096241 185.520252,124.569093 C188.279498,122.041944 190.677046,119.454062 192.7188,116.805444 L172.025188,90.2629816 C170.343656,87.9787714 168.544019,85.5686482 166.626276,83.0415 C164.705581,80.5128705 162.846891,77.9857223 161.04873,75.4570927 C152.77099,79.3115122 146.890797,83.8251233 143.414058,88.9994075 C139.932889,94.1766542 138.195258,100.134562 138.195258,106.874611 Z M209.993249,139.194259 L196.318074,121.319056 C190.55894,127.579154 184.739277,132.423102 178.862037,135.853861 C172.983321,139.28462 166.087419,141 158.168425,141 C153.729123,141 149.351827,140.305256 145.033584,138.923176 C140.713864,137.541096 136.814896,135.464271 133.33668,132.694185 C129.855512,129.92558 127.097742,126.52741 125.05894,122.492269 C123.017186,118.461571 122,113.798345 122,108.49963 C122,100.916704 124.816823,93.995932 130.457852,87.7358334 C136.094451,81.477216 145.213695,75.7592839 157.809678,70.5835185 C153.850181,64.4434075 150.999403,59.1787623 149.261771,54.7836575 C147.521187,50.3915154 146.653109,46.0882531 146.653109,41.8738705 C146.653109,35.8567099 148.030518,30.5298488 150.791241,25.8947686 C153.549012,21.2626511 157.449456,17.6200618 162.488144,14.9714445 C167.526833,12.3257899 173.343544,11 179.942705,11 C184.981394,11 189.808968,11.9643455 194.428381,13.8885926 C199.044842,15.8158024 202.824227,18.6140339 205.765062,22.2832872 C208.702944,25.9569845 210.173361,30.5609567 210.173361,36.0966852 C210.173361,40.4295742 209.184225,44.3432468 207.204476,47.8332593 C205.224728,51.324753 202.585063,54.4222131 199.286959,57.1315649 C195.985902,59.8394353 192.268522,62.2495584 188.13039,64.3530464 C183.990781,66.4609784 179.762594,68.3570802 175.444351,70.0413519 L203.515146,106.874611 L221.870264,80.3321483 C223.907589,77.4435556 225.078313,75.3089598 225.378006,73.9224353 C225.676223,72.5403548 225.378006,71.6071172 224.478926,71.1242038 C223.579845,70.6457343 222.409122,70.4027963 220.969707,70.4027963 L214.311493,70.4027963 L214.311493,64.2626853 L253,64.2626853 L253,70.4027963 L246.341786,70.4027963 C243.581063,70.4027963 241.332623,70.5835185 239.594992,70.9434816 C237.854408,71.304926 236.265885,72.1478025 234.824994,73.4706298 C233.385579,74.7979011 231.525413,76.9636049 229.247447,79.9721852 L206.934309,111.568944 L215.392161,122.58263 C217.789709,125.592691 220.039624,127.850238 222.140431,129.353787 C224.236809,130.860299 226.638786,131.854271 229.337503,132.332741 C232.036221,132.815654 235.244269,133.05563 238.964602,133.05563 L246.521897,133.05563 L246.521897,139.194259 L209.993249,139.194259 L209.993249,139.194259 Z" id="SvgjsPath1000" fill="#FFFFFF"></path>
            </g>
        </g>
    </g>
</svg><style>@media (prefers-color-scheme: light) { :root { filter: none; } }
</style></svg>