<svg xmlns="http://www.w3.org/2000/svg" xmlns:xlink="http://www.w3.org/1999/xlink" xmlns:svgjs="http://svgjs.com/svgjs" width="487" height="487"><svg width="487" height="487" xmlns="http://www.w3.org/2000/svg"><g id="SvgjsG1007" stroke="none" stroke-width="1" fill="none" fill-rule="evenodd"><g id="SvgjsG1006"><path id="SvgjsRect1005" fill="#053848" d="M0 0h487v487H0z"/><g id="SvgjsG1004" transform="translate(43 145)"><path d="M12.284 157.912c8.735 9.21 21.292 16.252 34.667 16.252 16.923 0 27.843-11.376 27.843-28.441 0-40.357-70.427-37.649-70.427-93.447C4.367 23.294 24.295 0 58.962 0c14.193 0 28.663 4.063 40.4 12.19l-9.28 23.022c-7.1-5.958-20.474-11.105-30.847-11.105-19.108 0-28.935 13.001-28.935 28.169 0 39.547 70.7 35.212 70.7 92.093C101 174.164 82.165 198 47.77 198c-17.197 0-34.395-6.23-47.77-17.876l12.284-22.212" id="SvgjsPath1003" fill="#FFFFFE"/><path d="M352.382 0c15.936 0 33.492 4.876 45.917 15.71l-10.804 22.21c-7.833-7.584-22.149-13.544-34.574-13.544-35.923 0-56.45 31.963-56.45 73.133 0 41.713 21.068 76.383 55.64 76.383 14.855 0 28.091-6.23 38.895-14.897l9.994 21.94C389.115 191.228 372.098 198 350.76 198 300.251 198 270 154.661 270 98.594 270 41.713 300.792 0 352.382 0" id="SvgjsPath1002" fill="#FFFFFE"/><path id="SvgjsPolygon1001" fill="#FFF" d="M145 198h83v-22h-83z"/><path d="M162.308 39.347c0 8.427 3.298 17.274 9.897 26.54a88.622 88.622 0 0011.966-6.86c3.897-2.646 7.108-5.867 9.627-9.66 2.52-3.791 3.78-8.395 3.78-13.812 0-5.656-1.44-10.2-4.319-13.632-2.88-3.43-6.9-5.146-12.057-5.146-5.64 0-10.198 2.047-13.675 6.139-3.481 4.094-5.219 9.57-5.219 16.43zm-24.113 67.528c0 5.415.99 10.111 2.97 14.083 1.979 3.973 4.917 7.014 8.816 9.119 3.897 2.106 8.486 3.158 13.766 3.158 4.679 0 8.788-.812 12.326-2.437 3.538-1.625 6.687-3.702 9.447-6.229 2.76-2.527 5.157-5.115 7.199-7.764l-20.694-26.542a619.38 619.38 0 00-5.399-7.222 299.296 299.296 0 01-5.577-7.584C152.77 79.312 146.89 83.825 143.414 89c-3.481 5.178-5.219 11.136-5.219 17.876zm71.798 32.32l-13.675-17.876c-5.76 6.26-11.579 11.104-17.456 14.535-5.879 3.43-12.775 5.146-20.694 5.146-4.439 0-8.816-.695-13.134-2.077-4.32-1.382-8.22-3.459-11.697-6.229-3.481-2.768-6.24-6.167-8.278-10.202-2.042-4.03-3.059-8.694-3.059-13.992 0-7.583 2.817-14.504 8.458-20.764 5.636-6.259 14.756-11.977 27.352-17.152-3.96-6.14-6.81-11.405-8.548-15.8-1.74-4.392-2.609-8.696-2.609-12.91 0-6.017 1.378-11.344 4.138-15.98 2.758-4.631 6.658-8.274 11.697-10.923C167.527 12.326 173.344 11 179.943 11c5.038 0 9.866.964 14.485 2.889 4.617 1.927 8.396 4.725 11.337 8.394 2.938 3.674 4.408 8.278 4.408 13.814 0 4.333-.989 8.246-2.969 11.736-1.98 3.492-4.619 6.59-7.917 9.299-3.301 2.707-7.018 5.118-11.157 7.221a140.255 140.255 0 01-12.686 5.688l28.071 36.834 18.355-26.543c2.038-2.888 3.208-5.023 3.508-6.41.298-1.382 0-2.315-.9-2.798-.898-.478-2.069-.721-3.508-.721h-6.659v-6.14H253v6.14h-6.658c-2.76 0-5.01.18-6.747.54-1.74.362-3.33 1.205-4.77 2.528-1.44 1.327-3.3 3.493-5.578 6.501l-22.313 31.597 8.458 11.014c2.398 3.01 4.648 5.267 6.748 6.77 2.097 1.507 4.499 2.501 7.198 2.98 2.698.483 5.906.723 9.627.723h7.557v6.138h-36.529z" id="SvgjsPath1000" fill="#FFF"/></g></g></g></svg><style>@media (prefers-color-scheme:light){:root{filter:none}}</style></svg>